<?xml version="1.0" standalone="no"?>
<!DOCTYPE svg PUBLIC "-//W3C//DTD SVG 20010904//EN"
 "http://www.w3.org/TR/2001/REC-SVG-20010904/DTD/svg10.dtd">
<svg version="1.0" xmlns="http://www.w3.org/2000/svg"
 width="600.000000pt" height="600.000000pt" viewBox="0 0 600.000000 600.000000"
 preserveAspectRatio="xMidYMid meet">

<g transform="translate(0.000000,600.000000) scale(0.100000,-0.100000)"
fill="#000000" stroke="none">
<path d="M330 5990 c0 -5 9 -10 21 -10 11 0 17 5 14 10 -3 6 -13 10 -21 10 -8
0 -14 -4 -14 -10z"/>
<path d="M495 5984 c171 -34 340 -43 455 -23 30 5 70 12 88 14 121 19 80 23
-253 23 -335 0 -355 -1 -290 -14z"/>
<path d="M1303 5993 c9 -2 23 -2 30 0 6 3 -1 5 -18 5 -16 0 -22 -2 -12 -5z"/>
<path d="M1498 5979 c57 -22 65 -34 28 -43 -14 -3 -32 -13 -40 -22 -11 -10
-16 -11 -16 -3 0 9 -16 10 -62 4 -35 -4 -82 -9 -105 -10 -24 -1 -56 -8 -73
-15 -26 -11 -39 -10 -82 4 -62 20 -63 20 -82 1 -12 -13 -22 -13 -58 -4 -24 6
-73 12 -109 14 -36 1 -74 5 -85 8 -39 13 -273 16 -379 6 -107 -11 -168 -14
-347 -17 l-88 -2 0 -60 0 -60 123 -1 c353 -2 1156 2 1475 7 207 4 362 3 363
-2 0 -5 2 -16 4 -24 20 -95 20 -93 -9 -86 -18 4 -25 3 -21 -4 3 -5 14 -10 23
-10 10 0 23 -9 30 -20 11 -18 10 -20 -8 -20 -11 0 -20 5 -20 10 0 7 -26 9 -72
6 -40 -3 -122 -9 -183 -13 l-110 -7 65 -7 c105 -11 252 -10 245 1 -4 6 5 10
22 9 17 -1 21 -3 11 -6 -30 -7 -20 -20 11 -15 16 2 37 -1 48 -6 16 -9 13 -13
-25 -30 -35 -16 -52 -18 -90 -10 -26 4 -54 5 -62 2 -12 -5 -267 -21 -432 -27
-21 -1 -38 -5 -38 -10 0 -9 -109 -5 -126 5 -5 3 -28 6 -51 5 -29 0 -40 -3 -36
-13 6 -17 -66 -11 -77 6 -7 11 -65 13 -279 11 -189 -1 -271 1 -271 9 0 8 -6 8
-20 0 -11 -6 -20 -18 -20 -27 0 -13 -9 -14 -62 -8 -146 19 -408 12 -408 -11 0
-14 150 -30 202 -20 52 9 619 9 629 -1 4 -4 -101 -9 -234 -9 -133 -1 -322 -3
-419 -4 l-177 -3 0 -88 c0 -81 2 -89 20 -89 10 0 19 5 19 10 0 6 -4 10 -10 10
-5 0 -10 3 -10 8 0 4 39 8 88 10 91 2 182 18 182 32 0 13 38 19 186 30 76 6
141 15 142 20 2 6 31 9 65 8 l62 -1 -55 -6 c-77 -8 -51 -18 53 -20 48 -1 95
-5 104 -8 11 -4 14 -2 9 5 -4 7 -23 12 -43 12 -20 0 -34 3 -30 6 9 9 665 13
732 4 50 -6 36 -8 -85 -10 -80 -1 -149 -2 -155 0 -5 1 -52 0 -105 -1 -52 -1
-110 -1 -128 -1 -20 0 -30 -3 -26 -10 4 -7 166 -9 498 -5 270 2 482 1 471 -4
-11 -4 -49 -8 -85 -9 -114 -2 -114 -19 0 -19 58 -1 112 -6 120 -12 12 -9 11
-10 -7 -6 -13 3 -23 1 -23 -4 0 -5 7 -9 16 -9 8 0 12 -5 9 -10 -4 -6 -10 -8
-15 -5 -5 3 -11 1 -15 -5 -3 -5 -50 -9 -108 -9 -170 2 -247 -1 -247 -8 0 -5
23 -9 52 -10 28 -1 54 -6 57 -11 3 -4 70 -8 148 -7 94 0 146 -4 153 -11 9 -9
-1 -12 -39 -11 -28 1 -51 5 -51 9 0 4 -10 8 -22 8 -19 0 -20 -2 -8 -10 11 -7
1 -9 -33 -8 -26 2 -51 -2 -55 -8 -6 -9 -344 -29 -442 -27 -14 1 -110 1 -215 1
-104 1 -201 2 -215 2 -53 4 -90 3 -245 -4 -262 -12 -257 -24 10 -27 365 -5
399 -5 412 5 7 4 24 5 38 2 13 -3 112 -7 220 -7 108 -1 195 -5 195 -10 0 -5
-17 -10 -37 -11 -102 -4 -133 -3 -133 6 0 4 -10 2 -22 -6 -23 -14 -99 -16
-210 -5 -26 2 -67 1 -90 -3 -29 -6 -45 -5 -50 3 -5 7 -8 8 -8 2 0 -7 -28 -10
-77 -7 -43 1 -82 3 -88 3 -102 2 -568 -11 -576 -17 -8 -5 -9 -3 -4 6 6 9 0 10
-25 5 -26 -6 -31 -4 -24 6 6 12 5 12 -8 1 -14 -11 -18 -10 -25 3 -6 10 -16 13
-28 9 -18 -7 -18 -8 0 -14 17 -6 16 -8 -7 -12 -20 -4 -33 1 -50 20 -23 24 -23
24 -1 18 12 -4 24 -2 28 4 4 7 18 9 30 6 19 -5 22 -2 18 12 -4 17 4 19 89 20
51 0 129 4 173 7 44 3 145 7 225 9 417 12 566 19 580 27 10 5 -4 9 -40 10 -30
0 -106 4 -168 7 -61 4 -112 4 -112 0 0 -5 -27 -8 -59 -8 -33 0 -72 -5 -88 -11
-17 -6 -53 -8 -93 -4 -62 7 -63 8 -40 21 23 14 17 14 -55 8 -44 -4 -93 -8
-110 -8 -16 -1 -35 -7 -41 -15 -8 -11 -33 -13 -113 -9 -56 3 -104 2 -106 -2
-2 -4 -32 -3 -66 2 -35 4 -74 6 -88 4 -14 -2 -41 -5 -59 -5 l-33 -1 3 -47 3
-48 57 0 c31 0 59 -3 63 -7 9 -9 -61 -22 -80 -14 -29 11 -45 -5 -45 -44 0 -37
0 -37 43 -39 23 -2 57 -3 75 -2 28 0 31 -3 21 -15 -9 -11 -7 -14 14 -14 14 0
27 5 29 10 5 17 138 22 144 6 3 -8 19 -12 42 -11 21 1 55 -8 77 -19 22 -12 59
-21 82 -21 76 0 43 -25 -39 -30 -34 -2 -48 1 -52 12 -5 12 -20 14 -72 10 -38
-2 -60 -1 -52 4 10 7 10 9 -2 10 -52 5 -75 4 -106 -7 -29 -10 -42 -9 -82 6
-48 19 -65 17 -70 -8 -2 -9 4 -11 18 -7 11 4 20 2 20 -4 0 -6 -20 -11 -45 -11
-45 0 -45 0 -45 -34 l0 -34 65 -7 c35 -4 76 -4 90 -1 15 4 165 7 334 7 291 0
407 -9 421 -32 8 -11 82 -13 238 -5 109 5 132 4 132 -8 0 -7 12 -16 28 -19 35
-7 42 0 8 9 -35 9 -33 24 4 24 17 0 30 -4 30 -10 0 -5 8 -10 18 -10 14 0 15 2
2 10 -10 6 7 9 50 8 l64 -1 -55 -17 c-53 -18 -54 -18 -17 -19 20 -1 38 3 40 7
5 13 68 23 68 11 0 -6 27 -9 68 -7 37 1 124 -3 194 -10 204 -20 265 -19 325 8
29 13 50 27 47 32 -10 15 27 21 52 7 19 -10 27 -10 32 -2 8 13 153 11 295 -4
43 -4 83 -6 88 -3 4 3 46 3 91 -2 46 -4 124 -8 175 -10 50 -2 89 -6 87 -10 -3
-4 6 -10 20 -14 23 -5 23 -7 8 -25 -9 -10 -23 -19 -32 -20 -8 0 -4 -5 10 -10
24 -10 167 -11 183 -2 5 3 0 11 -10 18 -12 9 -37 12 -78 9 -42 -4 -56 -2 -45
5 8 5 18 7 22 5 4 -3 18 4 30 15 12 12 26 21 30 21 5 0 6 5 3 10 -4 7 7 10 32
10 21 -1 54 3 73 9 19 6 50 11 69 11 26 0 32 3 27 16 -3 8 -2 12 3 9 5 -3 13
0 16 6 4 5 13 8 21 5 8 -3 14 -1 14 4 0 5 -22 8 -49 7 -59 -2 -68 4 -47 35 16
24 15 24 -11 21 -21 -3 -37 4 -60 27 -38 35 -43 37 -43 10 0 -11 -4 -20 -8
-20 -12 0 -11 32 1 48 6 8 14 9 21 3 6 -5 23 -8 39 -6 15 2 27 -1 27 -6 0 -5
-5 -9 -11 -9 -5 0 -7 -5 -3 -11 5 -8 10 -6 18 7 13 23 27 27 89 25 36 -1 55
-8 75 -26 l26 -25 -32 4 c-18 3 -32 0 -32 -5 0 -5 9 -9 21 -9 11 0 17 -4 14
-10 -3 -5 3 -10 13 -10 12 0 22 9 25 21 7 24 26 17 23 -8 -3 -17 41 -49 52
-38 3 3 0 5 -6 5 -7 0 -12 5 -12 10 0 14 37 12 43 -2 3 -8 6 -6 6 4 1 9 10 23
22 31 21 15 12 31 -13 22 -8 -3 -23 4 -34 16 l-19 22 85 -8 c47 -4 103 -8 125
-10 22 -1 79 -12 127 -24 83 -21 131 -26 210 -21 47 3 63 -7 47 -26 -18 -22
-3 -28 18 -7 18 18 35 20 128 15 37 -2 41 -5 40 -28 0 -29 -54 -69 -62 -46 -5
14 -73 17 -73 2 0 -5 -13 -10 -30 -10 -16 0 -30 5 -30 10 0 6 5 10 10 10 6 0
10 4 10 10 0 11 -59 5 -155 -16 l-60 -12 55 0 c30 0 84 -5 120 -10 36 -6 74
-10 85 -10 63 2 167 -3 162 -8 -7 -8 -692 -6 -722 2 -13 3 -25 1 -29 -4 -3 -5
18 -10 52 -11 31 0 100 -4 152 -7 167 -10 341 -11 346 -3 3 5 13 5 22 0 9 -5
30 -14 46 -20 27 -11 28 -13 12 -30 -13 -14 -33 -19 -95 -20 -73 -2 -79 0 -84
20 -3 12 -10 18 -17 14 -6 -4 -126 -7 -266 -7 -215 -1 -258 -3 -271 -16 -12
-12 -16 -13 -23 -2 -6 10 -15 10 -40 1 -18 -6 -51 -12 -74 -12 -23 -1 5 -7 63
-15 57 -7 106 -15 109 -18 14 -15 -20 -20 -156 -22 -81 -2 -139 -1 -129 2 9 3
17 9 17 12 0 10 -74 9 -81 -1 -6 -9 -579 -16 -579 -7 0 3 -44 4 -97 3 -65 -1
-101 3 -105 10 -6 9 -11 8 -19 -3 -8 -11 -12 -12 -16 -2 -2 6 -9 12 -14 12 -6
0 -7 -4 -4 -10 4 -6 -14 -10 -47 -9 -29 1 -45 3 -35 6 9 2 17 9 17 15 0 6 9 8
20 5 11 -3 18 -1 14 4 -7 12 -44 11 -44 -1 0 -5 -9 -10 -21 -10 -11 0 -17 5
-14 10 7 11 -14 12 -187 10 -76 -1 -108 2 -108 11 0 8 -14 9 -47 4 -26 -4 -88
-9 -137 -11 -49 -2 -91 -6 -94 -9 -3 -3 44 -6 104 -6 60 -1 123 -5 139 -8 17
-4 -64 -7 -180 -6 -115 2 -244 -2 -285 -6 -41 -5 -114 -6 -162 -3 -72 5 -85 9
-81 22 5 11 3 13 -8 6 -18 -11 -79 -15 -79 -5 0 4 26 12 58 19 67 14 97 15 67
2 -12 -5 9 -7 55 -4 41 3 77 8 80 11 3 3 -15 3 -39 0 -42 -5 -47 6 -6 16 11 3
-11 6 -50 7 -119 3 -187 10 -235 23 -50 15 -312 22 -270 7 25 -8 25 -8 -5 -10
-16 -1 -39 -6 -50 -11 -19 -9 -19 -9 2 -5 12 2 37 0 55 -4 l33 -8 -35 -1 c-47
-2 -73 -18 -39 -25 13 -2 44 -9 69 -14 44 -10 44 -10 -18 -7 -35 2 -66 6 -69
8 -3 3 -16 2 -29 -3 -14 -6 -26 -6 -29 1 -4 5 -12 6 -18 2 -16 -10 -517 -11
-523 -1 -3 4 -23 8 -45 8 l-39 0 0 -54 0 -53 488 -4 c268 -2 753 -1 1077 2
632 7 2635 3 3753 -7 391 -4 682 -3 682 2 0 5 -10 15 -21 23 -17 10 -23 10
-29 1 -6 -10 -29 -11 -88 -6 -44 4 -246 10 -449 13 -202 3 -375 6 -384 6 -24
2 -11 27 15 27 17 0 18 2 6 10 -11 7 -4 10 27 10 23 0 44 4 47 9 3 5 0 9 -7 8
-6 0 -41 1 -76 1 -59 2 -63 3 -45 16 18 14 16 15 -22 14 -89 -1 -224 19 -224
32 0 5 6 7 14 4 8 -3 17 -1 20 4 3 6 20 7 38 3 18 -4 62 -9 98 -10 71 -3 221
-28 180 -30 -22 -1 -23 -3 -7 -12 9 -5 23 -7 29 -3 17 11 92 14 82 4 -5 -5
-20 -10 -34 -13 -16 -3 -9 -5 18 -6 24 0 41 3 38 8 -9 14 20 21 85 21 40 0 59
-4 59 -12 0 -10 2 -10 8 0 5 7 15 11 23 8 40 -12 73 -17 64 -8 -22 21 -85 32
-195 33 -84 2 -106 5 -83 11 18 4 35 13 38 18 6 10 -26 13 -120 11 -35 0 -37
1 -15 9 28 9 27 11 -13 16 -17 2 -30 -2 -33 -11 -6 -14 -35 -14 -154 1 -25 3
-70 6 -100 6 -49 0 -52 2 -35 14 10 8 15 14 11 14 -4 0 4 15 18 33 17 23 22
37 15 44 -5 5 -7 17 -3 26 7 19 29 23 39 7 8 -13 82 -13 90 0 4 7 11 8 18 1 7
-5 44 -7 82 -5 167 10 391 11 402 3 7 -7 14 -6 18 1 9 15 61 12 75 -5 10 -12
9 -16 -6 -21 -11 -3 -28 -10 -39 -14 -18 -8 -107 -19 -159 -20 -11 0 -17 -2
-14 -5 12 -13 67 -19 133 -17 68 3 88 3 204 2 48 0 53 -2 48 -20 -5 -18 0 -20
31 -20 21 0 50 0 66 0 15 -1 35 7 42 17 11 14 13 15 9 2 -5 -13 4 -17 47 -22
29 -4 68 -7 86 -7 l32 0 0 55 0 55 -37 1 c-21 1 -42 1 -47 0 -39 -8 -89 -7
-131 0 -27 5 -79 12 -115 15 -128 12 -71 17 128 11 l202 -5 0 509 0 509 -1476
0 -1476 0 5 -22 c6 -22 6 -22 -8 -4 -13 18 -15 18 -15 3 0 -10 7 -28 16 -41
10 -16 12 -26 5 -31 -6 -3 -11 -22 -11 -41 0 -24 -4 -34 -12 -31 -9 3 -12 27
-10 85 l3 82 -92 0 -91 0 5 -28 c7 -34 -8 -66 -18 -40 -4 9 -6 22 -4 29 5 37
0 39 -90 39 -79 0 -89 -2 -94 -19 -2 -10 -1 -25 4 -32 12 -20 11 -32 -5 -54
-12 -16 -15 -17 -27 -4 -30 30 -51 72 -46 90 5 18 -3 19 -165 19 l-169 0 22
-32 c16 -21 19 -33 11 -36 -7 -2 -12 -8 -12 -14 0 -5 9 -6 20 -3 20 6 28 -9
10 -20 -10 -6 7 -54 25 -68 6 -5 4 -7 -5 -4 -8 2 -21 -2 -28 -10 -20 -19 -29
-9 -35 39 -20 138 -25 148 -71 148 -31 0 -33 -2 -28 -26 3 -19 1 -25 -7 -20
-6 4 -11 16 -11 27 0 10 -5 19 -11 19 -14 0 -3 -38 22 -72 10 -15 19 -36 19
-46 0 -11 7 -25 15 -32 19 -16 19 -27 -1 -48 -15 -15 -16 -14 -9 8 7 24 7 24
-18 -4 -20 -23 -24 -36 -20 -68 5 -31 2 -43 -16 -59 -12 -12 -24 -19 -27 -17
-2 3 -7 25 -10 50 -6 41 -4 47 15 53 28 9 27 23 -4 35 -24 9 -37 50 -15 50 6
0 3 12 -6 26 -14 21 -15 27 -4 34 11 7 10 13 -3 34 -12 17 -13 27 -6 32 30 18
-39 24 -306 23 l-290 0 53 -20z m92 1 c24 -15 7 -19 -20 -5 -15 8 -19 14 -10
14 8 1 22 -3 30 -9z m850 -17 c0 -35 14 -58 29 -49 6 4 11 1 11 -8 0 -10 -8
-14 -27 -11 -16 2 -31 4 -35 4 -4 1 -10 11 -14 24 -7 21 -7 21 -15 2 -6 -13
-7 -8 -3 15 8 45 11 50 35 50 14 0 19 -7 19 -27z m240 -32 c0 -24 -1 -24 -15
-5 -8 10 -14 30 -14 44 0 24 0 24 14 6 8 -11 15 -31 15 -45z m-935 29 c3 -5
-1 -10 -9 -10 -8 0 -18 5 -21 10 -3 6 1 10 9 10 8 0 18 -4 21 -10z m825 -46
c0 -25 -18 -15 -29 17 -6 18 -11 35 -11 38 1 12 40 -42 40 -55z m-813 10 c-3
-3 -12 -4 -19 -1 -8 3 -5 6 6 6 11 1 17 -2 13 -5z m-212 -14 c-4 -6 -11 -8
-16 -5 -5 4 -9 1 -9 -6 0 -7 -3 -10 -6 -6 -9 9 5 27 22 27 8 0 12 -5 9 -10z
m-1059 -15 c-3 -9 0 -15 9 -15 8 0 15 3 15 8 0 4 56 7 124 7 68 0 122 -3 119
-7 -2 -5 -12 -8 -21 -8 -13 0 -14 -2 -3 -9 9 -6 10 -11 2 -15 -6 -4 -14 -1
-16 7 -5 11 -35 13 -153 11 -150 -3 -247 6 -190 18 15 3 46 4 68 3 22 -1 40 2
40 6 0 5 3 9 6 9 3 0 4 -7 0 -15z m1134 11 c0 -3 -4 -8 -10 -11 -5 -3 -10 -1
-10 4 0 6 5 11 10 11 6 0 10 -2 10 -4z m37 -2 c-3 -3 -12 -4 -19 -1 -8 3 -5 6
6 6 11 1 17 -2 13 -5z m-817 -21 c0 -7 5 -13 10 -13 6 0 10 6 10 13 0 9 2 9 9
-1 4 -7 21 -17 37 -22 23 -7 15 -8 -41 -9 -64 0 -68 1 -51 14 15 11 16 15 5
15 -8 0 -20 -5 -26 -11 -6 -6 -17 -9 -23 -7 -10 3 -9 8 2 18 18 18 68 20 68 3z
m1910 7 c0 -5 -5 -10 -11 -10 -5 0 -7 -4 -4 -10 3 -5 2 -10 -4 -10 -5 0 -9 9
-8 20 1 20 27 29 27 10z m110 -33 c0 -20 -25 1 -28 24 -2 23 -2 23 13 5 8 -11
15 -24 15 -29z m100 34 c0 -5 -6 -21 -14 -36 -8 -15 -12 -33 -10 -40 3 -7 -4
-15 -15 -18 -16 -4 -21 0 -21 16 0 39 23 87 42 87 10 0 18 -4 18 -9z m-2674
-9 c-5 -9 -95 -7 -104 3 -3 3 20 5 52 5 31 0 55 -4 52 -8z m666 -1 c-12 -7
-62 -4 -62 5 0 2 17 4 38 4 23 0 32 -3 24 -9z m419 0 c-8 -5 -20 -7 -28 -4
-21 8 -15 13 15 13 20 0 23 -3 13 -9z m1339 -16 c0 -18 5 -25 19 -25 30 0 53
-38 38 -61 -7 -11 -19 -19 -29 -19 -9 0 -20 -12 -25 -26 l-8 -25 -23 31 c-22
29 -22 33 -10 90 12 61 38 84 38 35z m-1694 5 c9 0 12 -4 9 -10 -9 -14 -18
-13 -41 6 -17 14 -17 15 -1 10 10 -3 25 -6 33 -6z m1644 -15 c0 -8 -6 -12 -14
-9 -8 3 -12 12 -9 20 6 17 23 9 23 -11z m-2434 -8 c4 -4 -9 -7 -30 -7 -23 0
-35 4 -31 10 7 11 49 9 61 -3z m54 3 c0 -5 -9 -10 -20 -10 -11 0 -20 5 -20 10
0 6 9 10 20 10 11 0 20 -4 20 -10z m170 1 c0 -5 -7 -12 -16 -15 -24 -9 -28 -7
-14 9 14 17 30 20 30 6z m180 0 c-19 -12 -110 -25 -110 -17 0 12 44 25 85 25
27 0 35 -2 25 -8z m1786 -15 c17 -18 18 -38 2 -55 -10 -11 -10 -14 -1 -18 16
-6 54 -68 70 -113 16 -44 16 -53 1 -44 -9 6 -9 3 0 -9 8 -9 10 -21 6 -28 -4
-7 3 -19 16 -29 14 -11 20 -22 15 -30 -6 -9 -9 -9 -16 1 -6 10 -9 4 -9 -18 0
-18 5 -33 10 -33 6 0 10 5 10 10 0 15 30 12 31 -2 1 -7 1 -42 0 -78 0 -35 2
-73 5 -82 8 -26 24 -22 24 6 0 34 18 78 29 72 5 -3 8 -19 7 -36 -2 -23 2 -30
16 -30 11 0 18 -7 18 -20 0 -25 -16 -26 -29 -2 -9 15 -10 13 -11 -10 0 -15 -5
-39 -12 -53 -9 -21 -18 -25 -42 -23 -25 2 -39 -5 -70 -36 -38 -38 -38 -39 -23
-71 15 -31 14 -45 -4 -45 -11 0 -31 103 -21 109 5 3 12 14 15 25 4 11 13 16
22 12 15 -5 19 4 15 38 -1 11 3 16 9 11 18 -10 25 24 11 50 -7 13 -22 25 -33
27 -11 2 -23 9 -25 17 -3 10 0 12 11 8 16 -6 27 12 26 41 0 12 -3 10 -10 -6
-5 -13 -13 -21 -17 -18 -10 6 -8 73 1 82 3 3 3 13 0 22 -4 9 -2 13 4 9 15 -10
7 122 -12 173 -8 25 -28 57 -42 72 -30 32 -38 59 -20 70 8 5 6 8 -5 8 -21 0
-22 6 -5 25 15 18 16 18 33 1z m2759 4 c3 -5 -1 -10 -10 -10 -9 0 -13 5 -10
10 3 6 8 10 10 10 2 0 7 -4 10 -10z m374 -6 c2 -2 -9 -4 -25 -4 -22 0 -26 -3
-14 -10 23 -15 57 -12 64 5 3 8 10 15 17 15 6 0 9 -6 6 -14 -4 -10 4 -12 34
-10 22 2 44 6 49 9 4 3 10 -1 13 -9 5 -12 -22 -14 -163 -14 -94 0 -167 4 -164
9 3 5 15 10 27 10 12 1 4 5 -18 9 l-40 7 48 2 c30 0 46 -3 42 -9 -3 -5 -1 -10
4 -10 6 0 11 5 11 11 0 6 7 8 16 5 9 -3 12 -2 9 4 -6 10 73 3 84 -6z m-5454
-4 c8 -12 -42 -12 -70 0 -16 7 -11 9 22 9 23 1 45 -3 48 -9z m5222 4 c-3 -3
-12 -4 -19 -1 -8 3 -5 6 6 6 11 1 17 -2 13 -5z m320 0 c-3 -3 -12 -4 -19 -1
-8 3 -5 6 6 6 11 1 17 -2 13 -5z m-2990 -26 c-3 -8 -6 -5 -6 6 -1 11 2 17 5
13 3 -3 4 -12 1 -19z m3123 0 c0 -5 -10 -6 -22 -3 -36 11 -41 22 -8 17 16 -2
30 -9 30 -14z m-2727 -18 c3 -11 1 -20 -4 -20 -11 0 -1 -50 12 -64 12 -14 11
-56 -1 -56 -5 0 -10 -7 -10 -16 0 -8 5 -12 10 -9 6 3 10 -3 10 -14 0 -12 -4
-21 -8 -21 -5 0 -9 -44 -10 -97 -1 -70 2 -92 9 -78 7 16 8 14 3 -10 -10 -45
-13 -135 -5 -135 4 0 11 4 17 10 12 12 6 -71 -7 -84 -12 -13 -12 -66 0 -66 6
0 5 -14 0 -35 -6 -19 -8 -53 -6 -75 6 -58 -9 -70 -18 -14 -4 27 -14 53 -22 59
-14 10 -14 15 1 47 17 36 19 94 3 115 -5 8 -4 39 3 82 6 39 9 75 6 80 -5 8
-11 394 -7 424 2 14 18 -2 24 -23z m1970 23 c-7 -2 -19 -2 -25 0 -7 3 -2 5 12
5 14 0 19 -2 13 -5z m123 0 c-7 -7 -87 -5 -95 3 -2 2 20 4 49 4 29 0 50 -3 46
-7z m59 -3 c-3 -5 -10 -10 -16 -10 -5 0 -9 5 -9 10 0 6 7 10 16 10 8 0 12 -4
9 -10z m126 0 c-19 -5 -44 -4 -55 0 -15 6 -5 9 34 8 50 0 52 -1 21 -8z m-2500
-52 c2 -21 -2 -43 -9 -50 -9 -9 -12 -7 -13 13 -2 25 -2 67 0 84 2 23 20 -13
22 -47z m-493 2 c6 0 13 6 15 13 3 6 6 -5 6 -27 1 -31 -2 -37 -15 -32 -9 3
-21 6 -28 6 -7 0 -12 14 -12 36 0 30 2 33 12 20 6 -9 16 -16 22 -16z m432 -55
c0 -16 -27 -32 -37 -22 -3 4 -3 13 0 22 8 20 37 20 37 0z m154 -20 c12 -46 -5
-56 -42 -26 -27 23 -20 51 13 51 16 0 25 -7 29 -25z m-584 -6 c0 -6 -4 -7 -10
-4 -5 3 -10 11 -10 16 0 6 5 7 10 4 6 -3 10 -11 10 -16z m-323 -11 c-3 -8 -6
-5 -6 6 -1 11 2 17 5 13 3 -3 4 -12 1 -19z m214 -61 c11 -51 10 -60 -3 -74
-14 -13 -20 -13 -44 -2 -15 8 -29 21 -31 29 -3 10 1 8 11 -4 18 -23 21 -14 6
15 -6 11 -7 19 -3 18 28 -5 34 2 27 36 -8 42 3 79 16 55 4 -8 14 -41 21 -73z
m613 11 c-3 -10 -1 -18 5 -18 14 0 14 -45 1 -71 -22 -40 -33 -20 -28 51 3 39
1 70 -3 70 -5 0 -9 8 -9 18 0 14 4 12 20 -8 11 -14 17 -33 14 -42z m-689 22
c3 -5 2 -10 -4 -10 -5 0 -13 5 -16 10 -3 6 -2 10 4 10 5 0 13 -4 16 -10z m170
-49 c3 -5 1 -12 -5 -16 -5 -3 -10 1 -10 9 0 18 6 21 15 7z m649 -53 c8 -36 -4
-35 -36 1 -24 26 -25 30 -10 44 14 15 17 15 27 -1 7 -9 15 -29 19 -44z m-604
31 c0 -5 -4 -9 -10 -9 -5 0 -10 7 -10 16 0 8 5 12 10 9 6 -3 10 -10 10 -16z
m389 -6 c12 -25 3 -42 -21 -43 -13 0 -28 38 -22 54 9 24 29 19 43 -11z m-349
-10 c0 -9 -3 -13 -6 -10 -4 3 -15 2 -26 -4 -18 -9 -18 -8 -8 10 13 25 40 28
40 4z m-426 -24 c6 4 20 5 31 0 l20 -8 -20 -1 c-102 -7 -205 -8 -230 -2 -23 5
-9 8 55 12 47 3 96 2 109 -3 13 -4 29 -3 35 2z m186 -29 c0 -5 -4 -10 -10 -10
-5 0 -10 5 -10 10 0 6 5 10 10 10 6 0 10 -4 10 -10z m82 -18 c-8 -2 -9 -9 -2
-21 9 -18 4 -31 -12 -31 -4 0 -8 5 -8 12 0 6 -7 20 -16 30 -17 18 -18 18 26
31 17 5 29 -15 12 -21z m-242 10 c-30 -4 -32 -6 -15 -13 25 -11 -72 0 -100 12
-12 5 14 7 65 7 47 -1 69 -3 50 -6z m-655 -28 c28 -11 65 -15 139 -13 87 2
436 -18 443 -25 6 -6 -1038 3 -1046 9 -5 3 -12 1 -15 -4 -8 -13 -413 -13 -421
-1 -4 6 39 10 112 11 312 2 361 5 377 18 12 10 38 12 104 8 48 -4 105 -3 127
2 65 14 140 12 180 -5z m819 7 c3 -4 2 -28 -3 -52 -5 -24 -9 -34 -10 -22 -1
12 -4 29 -8 39 -4 12 -3 15 5 10 7 -4 12 -2 12 3 0 6 -4 11 -10 11 -5 0 -10 5
-10 10 0 12 17 13 24 1z m216 -16 c0 -7 -6 -15 -13 -18 -10 -4 -13 2 -9 19 4
24 22 24 22 -1z m559 -2 c-1 -10 1 -25 5 -34 4 -9 -2 -43 -12 -74 -16 -45 -25
-59 -41 -60 -12 -1 -21 2 -21 7 0 4 -6 8 -13 8 -8 0 -14 14 -15 35 -4 71 -6
80 -20 91 -12 8 -12 13 -3 18 13 8 40 -19 41 -40 0 -6 6 -17 14 -23 12 -10 17
-8 27 11 13 23 15 29 17 61 1 9 7 17 13 17 5 0 9 -8 8 -17z m-904 -13 c-3 -5
-12 -10 -18 -10 -7 0 -6 4 3 10 19 12 23 12 15 0z m-60 -18 c-3 -3 -11 0 -18
7 -9 10 -8 11 6 5 10 -3 15 -9 12 -12z m-1894 -2 c5 0 9 -5 9 -11 0 -15 -43
-7 -48 10 -3 10 0 12 12 8 10 -4 22 -7 27 -7z m2359 -24 c0 -3 -4 -8 -10 -11
-5 -3 -10 -1 -10 4 0 6 5 11 10 11 6 0 10 -2 10 -4z m-382 -13 c-10 -2 -26 -2
-35 0 -10 3 -2 5 17 5 19 0 27 -2 18 -5z m317 -22 c-3 -5 -1 -12 5 -16 5 -3
10 -14 10 -23 0 -21 -15 -5 -25 26 -4 14 -2 22 5 22 6 0 9 -4 5 -9z m-2130
-11 c3 -6 -1 -7 -9 -4 -18 7 -21 14 -7 14 6 0 13 -4 16 -10z m2485 -19 c0 -9
5 -22 12 -29 7 -7 8 -12 3 -12 -4 0 -1 -8 8 -17 8 -10 17 -34 20 -53 4 -37 12
-63 28 -93 9 -16 7 -18 -10 -12 -12 4 -21 2 -21 -4 0 -6 -10 -11 -22 -11 -13
-1 -33 -6 -46 -13 l-23 -13 22 -20 c11 -10 24 -18 28 -18 3 1 12 -1 19 -4 7
-2 18 0 25 7 19 19 27 12 27 -24 0 -25 -6 -37 -21 -46 -21 -11 -21 -20 -4 -75
6 -19 2 -20 -44 -20 -44 1 -51 4 -51 21 0 26 -11 40 -30 40 -8 0 -16 9 -18 20
-2 11 -10 36 -18 56 -13 29 -14 41 -4 58 6 12 13 45 15 73 5 69 22 107 51 114
25 6 32 20 13 26 -8 3 -6 16 5 42 15 37 36 41 36 7z m-670 15 c0 -3 -4 -8 -10
-11 -5 -3 -10 -1 -10 4 0 6 5 11 10 11 6 0 10 -2 10 -4z m107 -88 c-3 -8 -6
-5 -6 6 -1 11 2 17 5 13 3 -3 4 -12 1 -19z m225 4 c-7 -2 -10 -13 -6 -28 4
-15 2 -24 -6 -24 -6 0 -9 -4 -5 -9 3 -5 1 -12 -4 -15 -5 -3 -11 7 -13 24 -2
16 -1 27 3 25 4 -3 10 7 13 20 4 16 11 23 18 19 9 -6 9 -9 0 -12z m434 10 c14
-9 17 -79 4 -87 -5 -3 -10 0 -10 7 0 9 -3 9 -10 -2 -11 -17 -13 -11 -12 45 0
49 4 54 28 37z m86 -21 c10 -9 -8 -83 -24 -92 -18 -12 -28 9 -28 64 0 46 1 48
23 42 12 -4 25 -10 29 -14z m-735 -33 c-3 -8 -6 -5 -6 6 -1 11 2 17 5 13 3 -3
4 -12 1 -19z m392 -86 c-5 -2 -9 -10 -9 -18 0 -8 -9 -14 -20 -14 -11 0 -20 4
-20 10 0 5 7 7 15 4 11 -5 13 -2 9 10 -3 9 -1 16 5 16 6 0 11 8 12 18 0 14 2
14 8 -3 5 -11 4 -21 0 -23z m-941 10 c2 -7 -3 -12 -12 -12 -9 0 -16 7 -16 16
0 17 22 14 28 -4z m762 8 c0 -5 -2 -10 -4 -10 -3 0 -8 5 -11 10 -3 6 -1 10 4
10 6 0 11 -4 11 -10z m-183 -52 c-3 -8 -6 -5 -6 6 -1 11 2 17 5 13 3 -3 4 -12
1 -19z m379 -14 c-3 -9 -6 -20 -6 -25 0 -13 -27 -11 -35 2 -4 6 1 17 11 24 25
19 38 19 30 -1z m-363 -31 c20 -39 29 -83 18 -83 -5 0 -12 18 -16 40 -4 22
-11 42 -16 46 -5 3 -9 9 -9 15 0 17 9 9 23 -18z m282 -22 c-6 -5 -25 10 -25
20 0 5 6 4 14 -3 8 -7 12 -15 11 -17z m-1802 12 c-7 -2 -19 -2 -25 0 -7 3 -2
5 12 5 14 0 19 -2 13 -5z m198 -10 c8 -8 7 -13 0 -17 -6 -4 -11 -3 -11 2 0 5
-19 8 -42 7 -25 -2 -51 3 -63 12 -18 13 -14 14 43 10 35 -2 68 -9 73 -14z
m936 1 c-3 -3 -12 -4 -19 -1 -8 3 -5 6 6 6 11 1 17 -2 13 -5z m-181 -16 c88
-2 116 -6 140 -21 l29 -19 -42 5 c-24 3 -46 1 -49 -4 -3 -5 3 -9 13 -10 10 -1
33 -2 51 -4 17 -1 32 2 32 7 0 5 4 6 10 3 6 -3 7 1 4 9 -3 9 -2 16 4 16 6 0
17 3 26 6 9 3 16 1 16 -5 0 -6 -7 -11 -15 -11 -18 0 -20 -26 -3 -36 7 -4 8 -3
4 4 -5 8 2 12 18 12 14 0 29 1 34 3 4 1 9 -9 10 -22 4 -22 1 -24 -32 -18 -26
4 -38 2 -44 -9 -9 -17 -71 -27 -87 -15 -15 13 -75 1 -75 -15 0 -8 -10 -14 -22
-15 -13 0 -70 -2 -128 -5 -113 -4 -123 10 -15 21 33 4 73 12 88 18 24 10 10
12 -90 14 -232 4 -315 10 -324 24 -5 8 -9 9 -9 3 0 -16 -71 -26 -87 -12 -10 8
-17 8 -25 0 -17 -17 -91 -16 -86 1 3 6 15 14 29 16 13 1 35 14 48 27 15 15 31
22 42 19 9 -3 20 -1 23 4 4 5 56 8 125 7 65 -2 147 0 182 4 35 4 71 6 79 4 8
-2 65 -4 126 -6z m1235 -29 c-23 -25 -29 -11 -9 21 7 11 16 16 21 11 6 -6 1
-19 -12 -32z m-1084 25 c-3 -3 -12 -4 -19 -1 -8 3 -5 6 6 6 11 1 17 -2 13 -5z
m-1167 -13 c0 -14 -27 -21 -78 -21 -34 0 -43 3 -32 10 8 5 29 7 46 4 18 -3 35
-1 38 5 9 13 26 15 26 2z m403 -2 c7 -1 -4 -5 -23 -9 -19 -5 -37 -6 -40 -4 -8
8 24 24 38 19 8 -3 19 -5 25 -6z m-174 -39 c-7 -5 -18 -6 -24 -2 -6 4 -3 8 8
10 9 2 17 9 18 15 0 7 3 7 6 -2 3 -7 -1 -17 -8 -21z m1201 20 c0 -5 -4 -10
-10 -10 -5 0 -10 5 -10 10 0 6 5 10 10 10 6 0 10 -4 10 -10z m1028 -29 c-15
-5 -19 4 -11 24 6 18 7 18 13 -1 4 -10 3 -21 -2 -23z m102 29 c0 -5 -2 -10 -4
-10 -3 0 -8 5 -11 10 -3 6 -1 10 4 10 6 0 11 -4 11 -10z m-2483 -6 c-3 -3 -12
-4 -19 -1 -8 3 -5 6 6 6 11 1 17 -2 13 -5z m250 0 c-3 -3 -12 -4 -19 -1 -8 3
-5 6 6 6 11 1 17 -2 13 -5z m-277 -17 c17 4 21 3 16 -6 -13 -21 -49 -28 -101
-21 -28 4 -38 8 -22 9 15 0 30 7 33 15 4 11 12 13 29 6 12 -5 33 -6 45 -3z
m2104 -11 c-5 -14 -9 -15 -15 -5 -5 8 -3 17 4 21 15 9 19 4 11 -16z m-2014 10
c0 -3 -4 -8 -10 -11 -5 -3 -10 -1 -10 4 0 6 5 11 10 11 6 0 10 -2 10 -4z
m1680 -36 c0 -14 -39 -7 -44 7 -6 14 -4 14 10 2 15 -12 16 -11 9 11 -7 24 -7
24 9 5 8 -11 16 -22 16 -25z m-2041 16 c15 -18 -5 -34 -22 -17 -6 6 -19 11
-30 11 -10 0 -15 5 -12 10 9 15 51 12 64 -4z m421 4 c0 -5 -5 -10 -11 -10 -5
0 -7 5 -4 10 3 6 8 10 11 10 2 0 4 -4 4 -10z m1423 -36 c-6 -16 -7 -16 -14 2
-13 34 -11 47 6 30 9 -8 12 -22 8 -32z m3652 36 c-11 -5 -27 -9 -35 -9 -9 0
-8 4 5 9 11 5 27 9 35 9 9 0 8 -4 -5 -9z m-5025 -10 c13 -8 13 -10 -2 -10 -9
0 -20 5 -23 10 -8 13 5 13 25 0z m1750 -10 c6 -11 9 -20 6 -20 -13 0 -56 24
-56 32 0 17 40 7 50 -12z m423 0 c3 -11 1 -20 -4 -20 -5 0 -9 2 -9 4 0 2 -3
11 -6 20 -3 9 -2 16 4 16 5 0 12 -9 15 -20z m-2724 -9 c33 3 61 -1 61 -9 0
-12 -162 -13 -197 -1 -20 6 -12 7 32 3 54 -5 58 -4 46 10 -13 15 -11 16 14 6
16 -6 35 -10 44 -9z m1981 3 c0 -8 -4 -12 -10 -9 -5 3 -10 10 -10 16 0 5 5 9
10 9 6 0 10 -7 10 -16z m80 12 c0 -2 3 -11 6 -19 3 -10 0 -15 -8 -13 -22 3
-39 17 -33 27 6 9 35 13 35 5z m-2370 -16 c0 -5 -4 -10 -10 -10 -5 0 -10 5
-10 10 0 6 5 10 10 10 6 0 10 -4 10 -10z m80 0 c20 -6 21 -8 5 -8 -11 0 -31 4
-45 8 -20 6 -21 8 -5 8 11 0 31 -4 45 -8z m2880 -11 c0 -5 -4 -9 -10 -9 -5 0
-10 7 -10 16 0 8 5 12 10 9 6 -3 10 -10 10 -16z m-1104 -27 c-9 -2 -25 -1 -34
3 -15 6 -15 8 3 15 12 4 26 3 34 -4 12 -9 11 -12 -3 -14z m217 17 c22 -6 36
-13 32 -17 -10 -10 -78 -2 -94 11 -12 10 -13 9 -6 -3 8 -13 7 -13 -8 -1 -9 7
-17 15 -17 17 0 8 56 4 93 -7z m-333 -19 c-37 -6 -63 -2 -56 9 3 4 24 5 48 2
l43 -5 -35 -6z m2623 8 c3 -10 8 -10 21 1 9 8 19 11 22 8 7 -7 -55 -47 -73
-47 -7 0 -13 5 -13 10 0 6 7 10 15 10 9 0 12 6 9 15 -4 8 -2 15 4 15 6 0 12
-6 15 -12z m-3118 -8 c-28 -12 -37 -12 -30 0 3 6 16 10 28 9 21 0 21 -1 2 -9z
m125 0 c0 -5 -7 -10 -15 -10 -8 0 -15 5 -15 10 0 6 7 10 15 10 8 0 15 -4 15
-10z m1685 0 c3 -5 -1 -10 -10 -10 -9 0 -13 5 -10 10 3 6 8 10 10 10 2 0 7 -4
10 -10z m-2098 -8 c6 -4 -6 -8 -29 -8 -26 -1 -35 2 -27 7 17 11 40 11 56 1z
m3673 -12 c10 -19 8 -20 -46 -20 -50 0 -55 2 -43 16 8 9 21 13 35 10 13 -4 26
-2 29 4 9 14 13 13 25 -10z m-2896 -12 c-2 -4 -41 -6 -87 -6 -59 1 -73 3 -52
8 37 10 145 8 139 -2z m-191 -5 c-7 -2 -21 -2 -30 0 -10 3 -4 5 12 5 17 0 24
-2 18 -5z m402 -3 c-3 -5 1 -10 9 -10 9 0 16 4 16 8 0 5 14 7 30 4 40 -6 38
-22 -2 -23 -80 -2 -105 -3 -143 0 -32 2 -36 4 -20 11 11 5 34 6 51 3 18 -3 35
0 38 6 4 6 12 11 17 11 6 0 7 -4 4 -10z m2760 1 c3 -6 -4 -8 -16 -6 -30 6 -37
15 -11 15 11 0 23 -4 27 -9z m-2635 -5 c0 -2 -7 -6 -15 -10 -8 -3 -15 -1 -15
4 0 6 7 10 15 10 8 0 15 -2 15 -4z m2488 -42 c-9 -10 -24 -14 -33 -10 -23 9
-9 26 23 26 24 0 25 -1 10 -16z m-318 -4 c0 -5 -8 -10 -17 -10 -15 0 -16 2 -3
10 19 12 20 12 20 0z m-3317 -7 c-7 -2 -21 -2 -30 0 -10 3 -4 5 12 5 17 0 24
-2 18 -5z m3797 -13 c-8 -5 -24 -9 -35 -9 -16 1 -16 2 5 9 35 11 48 11 30 0z
m-1227 -7 c4 -3 33 -7 65 -9 31 -1 59 -3 62 -4 8 -3 119 0 198 6 54 4 72 2 67
-7 -6 -8 -2 -8 14 0 14 8 52 9 116 5 103 -8 140 -24 53 -24 -34 0 -48 -3 -39
-9 19 -13 -66 -20 -106 -9 -50 13 -95 16 -263 18 -85 1 -164 6 -175 10 -14 6
-16 9 -5 10 8 2 2 6 -15 10 -29 7 -29 8 -4 9 14 0 29 -2 32 -6z m952 -31 c-82
-16 -80 -16 -125 -13 -27 1 -31 4 -20 11 8 6 28 7 43 4 15 -3 33 -1 40 4 13
11 105 20 122 12 6 -2 -21 -11 -60 -18z m299 -4 c-7 -11 -131 -10 -138 0 -3 5
28 8 69 8 40 0 71 -4 69 -8z m-2607 -6 c6 -4 -26 -6 -70 -4 -126 4 -142 9 -37
10 52 1 100 -2 107 -6z m2723 -1 c0 -5 -9 -7 -20 -4 -11 3 -20 7 -20 9 0 2 9
4 20 4 11 0 20 -4 20 -9z m73 -8 c-7 -2 -19 -2 -25 0 -7 3 -2 5 12 5 14 0 19
-2 13 -5z m-1336 -19 c-3 -3 -12 -4 -19 -1 -8 3 -5 6 6 6 11 1 17 -2 13 -5z
m196 -1 c-13 -2 -33 -2 -45 0 -13 2 -3 4 22 4 25 0 35 -2 23 -4z m974 1 c-3
-3 -12 -4 -19 -1 -8 3 -5 6 6 6 11 1 17 -2 13 -5z"/>
<path d="M2191 5544 c0 -11 3 -14 6 -6 3 7 2 16 -1 19 -3 4 -6 -2 -5 -13z"/>
<path d="M1640 4960 c0 -5 9 -10 19 -10 11 0 23 5 26 10 4 6 -5 10 -19 10 -14
0 -26 -4 -26 -10z"/>
<path d="M1895 4950 c-3 -6 1 -7 9 -4 18 7 21 14 7 14 -6 0 -13 -4 -16 -10z"/>
<path d="M1820 4930 c0 -5 5 -10 11 -10 5 0 7 5 4 10 -3 6 -8 10 -11 10 -2 0
-4 -4 -4 -10z"/>
<path d="M3968 4733 c6 -2 18 -2 25 0 6 3 1 5 -13 5 -14 0 -19 -2 -12 -5z"/>
<path d="M1384 5668 c-7 -10 74 -8 106 2 18 6 7 8 -38 7 -35 -1 -66 -5 -68 -9z"/>
<path d="M65 5610 c-4 -6 9 -10 32 -9 30 0 34 2 18 9 -27 12 -43 12 -50 0z"/>
<path d="M827 5613 c18 -2 50 -2 70 0 21 2 7 4 -32 4 -38 0 -55 -2 -38 -4z"/>
<path d="M1448 5558 c9 -9 15 -9 24 0 9 9 7 12 -12 12 -19 0 -21 -3 -12 -12z"/>
<path d="M608 5553 c23 -2 59 -2 80 0 20 2 1 4 -43 4 -44 0 -61 -2 -37 -4z"/>
<path d="M1088 5523 c6 -2 18 -2 25 0 6 3 1 5 -13 5 -14 0 -19 -2 -12 -5z"/>
<path d="M1288 5523 c7 -3 16 -2 19 1 4 3 -2 6 -13 5 -11 0 -14 -3 -6 -6z"/>
<path d="M956 5381 c-3 -4 6 -6 19 -3 14 2 25 6 25 8 0 8 -39 4 -44 -5z"/>
<path d="M1478 5333 c7 -3 16 -2 19 1 4 3 -2 6 -13 5 -11 0 -14 -3 -6 -6z"/>
<path d="M365 5320 c-38 -4 -59 -8 -45 -10 41 -5 133 0 165 9 29 9 29 9 -10 8
-22 0 -71 -3 -110 -7z"/>
<path d="M884 5319 c-4 -7 -26 -10 -58 -7 -28 3 -64 1 -81 -3 -17 -3 38 -7
123 -8 83 0 152 3 152 7 0 4 -21 7 -47 7 -27 -1 -56 2 -65 7 -10 5 -20 4 -24
-3z"/>
<path d="M1148 5323 c12 -2 32 -2 45 0 12 2 2 4 -23 4 -25 0 -35 -2 -22 -4z"/>
<path d="M566 5299 c-43 -5 -81 -11 -84 -14 -10 -10 103 -3 153 10 58 15 41
16 -69 4z"/>
<path d="M1580 5300 c-14 -4 -77 -8 -140 -9 -125 -1 -142 -17 -25 -23 39 -2
78 -8 88 -12 10 -5 17 -4 17 2 0 6 -8 12 -17 15 -19 4 72 14 233 27 l99 7
-115 1 c-63 0 -126 -4 -140 -8z"/>
<path d="M1883 5303 c9 -2 25 -2 35 0 9 3 1 5 -18 5 -19 0 -27 -2 -17 -5z"/>
<path d="M304 5262 c5 -8 66 -4 66 4 0 2 -16 4 -36 4 -19 0 -33 -4 -30 -8z"/>
<path d="M803 5263 c9 -2 23 -2 30 0 6 3 -1 5 -18 5 -16 0 -22 -2 -12 -5z"/>
<path d="M1548 5263 c6 -2 18 -2 25 0 6 3 1 5 -13 5 -14 0 -19 -2 -12 -5z"/>
<path d="M340 5150 c0 -6 30 -10 70 -10 40 0 70 4 70 10 0 6 -30 10 -70 10
-40 0 -70 -4 -70 -10z"/>
<path d="M768 5133 c7 -3 16 -2 19 1 4 3 -2 6 -13 5 -11 0 -14 -3 -6 -6z"/>
<path d="M220 5011 c0 -13 37 -24 52 -15 8 5 6 10 -8 15 -27 11 -44 11 -44 0z"/>
<path d="M10 5000 c-9 -6 -10 -10 -3 -10 6 0 15 5 18 10 8 12 4 12 -15 0z"/>
<path d="M45 5000 c3 -6 18 -8 32 -6 40 8 40 16 -1 16 -22 0 -35 -4 -31 -10z"/>
<path d="M190 4990 c0 -6 7 -10 15 -10 8 0 15 2 15 4 0 2 -7 6 -15 10 -8 3
-15 1 -15 -4z"/>
<path d="M3260 4989 c0 -5 5 -7 10 -4 6 3 10 8 10 11 0 2 -4 4 -10 4 -5 0 -10
-5 -10 -11z"/>
<path d="M3776 4980 c-14 -4 -16 -9 -8 -14 7 -4 16 -5 21 -1 5 3 16 -1 24 -10
13 -13 16 -13 21 1 9 24 8 27 -14 21 -10 -3 -20 -1 -22 3 -2 4 -12 4 -22 0z"/>
<path d="M3315 4970 c-18 -8 -17 -9 7 -9 15 -1 30 4 33 9 7 12 -12 12 -40 0z"/>
<path d="M3751 4941 c-11 -7 -10 -11 5 -20 18 -11 17 -12 -3 -6 -12 3 -24 1
-28 -5 -9 -15 -23 -12 -27 5 -2 13 -10 11 -38 -10 l-35 -26 30 7 c17 4 47 7
67 7 21 -1 40 2 43 6 5 8 49 6 92 -4 12 -3 25 -1 28 5 6 9 -29 15 -63 11 -7
-1 -11 3 -10 10 2 6 -4 14 -12 16 -13 4 -13 3 0 -6 10 -7 11 -11 3 -11 -22 0
-28 4 -25 18 3 14 -7 15 -27 3z"/>
<path d="M4870 4940 c0 -5 12 -10 28 -10 21 0 24 2 12 10 -20 13 -40 13 -40 0z"/>
<path d="M4045 4930 c-8 -13 5 -13 25 0 13 8 13 10 -2 10 -9 0 -20 -4 -23 -10z"/>
<path d="M5220 4930 c0 -5 10 -10 23 -10 18 0 19 2 7 10 -19 13 -30 13 -30 0z"/>
<path d="M3565 4918 c-4 -9 -25 -14 -60 -14 -31 -1 -58 -4 -62 -8 -3 -3 0 -6
8 -6 12 0 12 -2 0 -9 -9 -6 -22 -4 -35 4 -17 11 -23 11 -33 0 -6 -7 -9 -16 -6
-19 8 -8 180 -6 215 3 l27 6 -25 28 c-17 20 -26 24 -29 15z m-15 -38 c0 -5 -7
-7 -15 -4 -8 4 -15 8 -15 10 0 2 7 4 15 4 8 0 15 -4 15 -10z m37 4 c-3 -3 -12
-4 -19 -1 -8 3 -5 6 6 6 11 1 17 -2 13 -5z"/>
<path d="M4970 4920 c0 -6 7 -10 15 -10 8 0 15 2 15 4 0 2 -7 6 -15 10 -8 3
-15 1 -15 -4z"/>
<path d="M5080 4900 c-21 -6 -23 -8 -7 -15 9 -4 24 -5 32 -1 8 3 15 1 15 -4 0
-5 12 -7 26 -4 16 3 23 1 19 -6 -3 -6 0 -7 9 -4 23 9 9 24 -23 24 -15 0 -31 4
-36 8 -6 5 -21 6 -35 2z"/>
<path d="M5018 4892 c-10 -2 -18 -9 -18 -15 0 -8 -4 -7 -12 1 -7 7 -21 12 -32
12 -42 0 2 -21 54 -26 50 -4 52 -4 39 13 -7 10 -13 18 -14 19 0 0 -8 -1 -17
-4z"/>
<path d="M3338 4863 c7 -3 16 -2 19 1 4 3 -2 6 -13 5 -11 0 -14 -3 -6 -6z"/>
<path d="M5296 4854 c-14 -10 -23 -11 -33 -3 -10 9 -13 8 -13 -5 0 -12 10 -15
45 -14 24 1 41 5 36 8 -4 3 -10 10 -12 17 -3 8 -9 8 -23 -3z"/>
<path d="M256 4850 c26 -10 184 -8 178 2 -3 5 -49 8 -102 7 -65 0 -90 -3 -76
-9z"/>
<path d="M571 4850 c22 -13 128 -15 139 -4 5 5 -25 10 -73 11 -54 1 -76 -1
-66 -7z"/>
<path d="M135 4829 c33 -5 70 -13 82 -18 15 -7 26 -6 40 4 21 17 32 14 -102
20 -80 3 -80 3 -20 -6z"/>
<path d="M5765 4830 c-3 -5 -1 -10 4 -10 6 0 11 5 11 10 0 6 -2 10 -4 10 -3 0
-8 -4 -11 -10z"/>
<path d="M348 4807 c24 -7 36 -7 44 1 9 9 1 12 -32 11 l-45 -1 33 -11z"/>
<path d="M420 4811 c0 -4 11 -6 25 -3 14 2 25 6 25 8 0 2 -11 4 -25 4 -14 0
-25 -4 -25 -9z"/>
<path d="M585 4809 c17 -5 35 -7 42 -5 6 3 13 0 15 -5 2 -5 12 -3 23 5 18 14
15 15 -45 15 -55 -1 -60 -2 -35 -10z"/>
<path d="M5276 4809 c6 -10 100 -6 111 5 4 4 -20 6 -54 5 -34 -1 -60 -6 -57
-10z"/>
<path d="M5407 4809 c5 -5 35 -11 66 -12 58 -2 73 -10 37 -20 -20 -5 -28 -27
-10 -27 6 0 10 4 10 8 0 9 151 5 160 -4 3 -3 -16 -4 -41 -3 -31 2 -55 -3 -70
-14 l-24 -16 25 4 c14 2 27 4 30 5 9 3 64 -1 83 -6 10 -3 17 0 17 8 0 10 17
12 72 10 51 -3 67 -7 57 -14 -10 -7 -5 -8 16 -3 17 3 48 8 70 10 31 4 35 3 20
-5 -16 -7 -10 -9 25 -7 l45 2 3 41 3 41 -163 2 c-90 1 -225 4 -301 5 -85 3
-135 0 -130 -5z m213 -28 c0 -6 -17 -7 -37 -4 -52 8 -54 13 -5 13 23 0 42 -4
42 -9z"/>
<path d="M2248 4798 c9 -9 15 -9 24 0 9 9 7 12 -12 12 -19 0 -21 -3 -12 -12z"/>
<path d="M8 4793 c7 -3 16 -2 19 1 4 3 -2 6 -13 5 -11 0 -14 -3 -6 -6z"/>
<path d="M500 4778 c0 -4 11 -8 24 -8 13 0 32 -3 42 -7 11 -4 15 -3 11 4 -8
13 -77 23 -77 11z"/>
<path d="M2075 4780 c3 -5 11 -10 16 -10 6 0 7 5 4 10 -3 6 -11 10 -16 10 -6
0 -7 -4 -4 -10z"/>
<path d="M2315 4780 c-3 -5 -2 -10 4 -10 5 0 13 5 16 10 3 6 2 10 -4 10 -5 0
-13 -4 -16 -10z"/>
<path d="M2410 4783 c8 -3 24 -10 35 -15 20 -9 20 -9 1 6 -11 9 -27 16 -35 15
-14 0 -14 -1 -1 -6z"/>
<path d="M1341 4776 c11 -9 69 -14 69 -6 0 6 -16 10 -37 10 -20 0 -34 -2 -32
-4z"/>
<path d="M2145 4772 c6 -5 45 -12 88 -14 52 -4 75 -2 68 5 -5 5 -45 12 -88 15
-52 3 -75 1 -68 -6z"/>
<path d="M2626 4772 c-3 -6 -32 -9 -63 -7 -32 1 -52 1 -45 -2 10 -4 10 -8 1
-19 -9 -11 -7 -14 15 -14 18 0 25 4 20 11 -5 9 3 10 28 5 26 -5 39 -2 48 9 7
9 10 18 7 21 -3 3 -8 1 -11 -4z"/>
<path d="M620 4760 c0 -5 11 -10 25 -10 14 0 25 5 25 10 0 6 -11 10 -25 10
-14 0 -25 -4 -25 -10z"/>
<path d="M1450 4760 c-10 -7 6 -10 55 -9 48 0 64 3 50 9 -27 12 -87 12 -105 0z"/>
<path d="M2335 4750 c3 -5 8 -10 11 -10 2 0 4 5 4 10 0 6 -5 10 -11 10 -5 0
-7 -4 -4 -10z"/>
<path d="M3194 4749 c-3 -5 6 -9 20 -9 31 0 34 6 6 13 -11 3 -23 1 -26 -4z"/>
<path d="M5038 4753 c7 -3 16 -2 19 1 4 3 -2 6 -13 5 -11 0 -14 -3 -6 -6z"/>
<path d="M203 4743 c9 -2 23 -2 30 0 6 3 -1 5 -18 5 -16 0 -22 -2 -12 -5z"/>
<path d="M2378 4733 c6 -2 18 -2 25 0 6 3 1 5 -13 5 -14 0 -19 -2 -12 -5z"/>
<path d="M2689 4729 c-9 -5 13 -9 58 -9 39 0 74 4 78 9 7 12 -118 12 -136 0z"/>
<path d="M5273 4733 c15 -2 39 -2 55 0 15 2 2 4 -28 4 -30 0 -43 -2 -27 -4z"/>
<path d="M3255 4710 c-15 -6 -7 -9 30 -9 36 -1 46 2 35 9 -18 12 -38 12 -65 0z"/>
<path d="M5708 4703 c7 -3 16 -2 19 1 4 3 -2 6 -13 5 -11 0 -14 -3 -6 -6z"/>
<path d="M5180 4692 c0 -4 35 -6 78 -4 119 5 127 9 20 11 -54 0 -98 -2 -98 -7z"/>
<path d="M5906 4682 c-3 -6 -1 -14 5 -17 15 -10 25 3 12 16 -7 7 -13 7 -17 1z"/>
<path d="M2553 4548 c-17 -6 -17 -7 0 -9 47 -5 87 0 87 10 0 11 -60 10 -87 -1z"/>
<path d="M3047 4374 c-8 -8 1 -24 13 -24 4 0 10 7 14 15 5 15 -14 21 -27 9z"/>
<path d="M341 4353 c-27 -18 -27 -66 -1 -109 12 -18 49 -57 83 -86 89 -76 124
-119 132 -158 3 -18 -2 -20 -41 -20 -24 0 -44 -4 -44 -10 0 -5 12 -10 27 -10
l27 0 -22 -20 c-29 -28 -36 -59 -29 -146 l5 -73 -33 -21 c-19 -11 -48 -37 -65
-57 -35 -40 -35 -62 2 -121 49 -79 188 -122 396 -122 327 0 528 109 426 230
l-26 31 60 54 c59 54 102 122 102 161 0 11 -8 36 -19 56 l-18 37 51 4 51 3
-56 2 c-31 1 -70 9 -85 17 -52 27 -143 16 -218 -26 -13 -7 -16 -7 -11 0 4 7
-5 11 -23 11 -16 0 -49 7 -73 16 -30 10 -83 16 -163 17 l-120 2 -28 49 c-16
26 -43 83 -60 125 -18 42 -40 88 -50 103 -39 57 -136 90 -177 61z m109 -23
c34 -17 45 -33 80 -108 59 -127 75 -155 161 -284 44 -64 79 -120 79 -123 0 -3
-15 -5 -32 -5 -31 1 -37 7 -97 106 -90 147 -125 192 -209 265 -93 80 -120 127
-90 157 18 18 64 15 108 -8z m502 -355 c25 -7 55 -18 66 -24 16 -8 29 -5 65
15 59 32 147 36 186 7 37 -28 47 -63 33 -112 -20 -64 -132 -163 -215 -191 -47
-15 -42 -25 5 -12 45 12 95 -7 108 -43 14 -38 14 -41 -26 -79 -68 -66 -211
-100 -420 -99 -232 1 -384 65 -384 161 0 31 111 121 124 100 76 -124 157 -173
281 -173 54 0 82 6 125 26 75 36 130 82 150 127 14 30 26 40 68 55 59 22 96
60 113 118 11 35 10 43 -8 67 -14 19 -31 28 -57 30 -31 3 -41 -2 -64 -28 -121
-143 -148 -163 -248 -181 -61 -11 -178 3 -190 23 -4 7 6 7 27 3 80 -18 239 -1
239 25 0 5 -34 16 -76 26 -74 18 -75 18 -120 80 -62 88 -63 92 -17 97 58 7
182 -3 235 -18z m-315 -75 c24 -36 43 -67 43 -70 0 -3 -26 -11 -57 -17 l-58
-11 -37 39 c-21 21 -38 43 -38 50 0 19 71 80 89 77 9 -2 35 -32 58 -68z m573
-43 c0 -35 -38 -87 -75 -103 -19 -8 -37 -14 -39 -14 -10 0 7 106 20 127 25 40
94 33 94 -10z m-135 -34 c-18 -105 -36 -145 -88 -198 -67 -66 -129 -89 -230
-83 -83 4 -129 24 -182 76 -46 45 -72 101 -81 171 l-6 53 50 -37 c102 -73 255
-103 364 -71 43 12 68 28 109 69 30 30 58 54 62 55 4 1 5 -15 2 -35z"/>
<path d="M4991 4245 c-24 -7 -53 -23 -65 -34 -13 -12 -27 -18 -32 -14 -5 5 -6
4 -2 -1 4 -5 0 -14 -9 -21 -24 -18 -9 -78 27 -109 32 -26 38 -50 18 -63 -7 -4
-78 -11 -158 -14 l-145 -5 143 -2 c135 -2 153 -6 133 -27 -16 -18 -29 -130
-24 -211 l5 -81 -79 -6 c-130 -10 -238 -60 -310 -142 -34 -38 -43 -75 -19 -75
8 0 28 -11 44 -25 40 -33 57 -32 103 10 65 59 116 47 207 -49 l54 -56 -43 0
c-54 0 -48 -7 11 -13 25 -2 62 -15 83 -27 24 -14 61 -24 102 -28 83 -6 84 -20
6 -89 -96 -85 -90 -144 25 -227 55 -40 63 -49 55 -65 -6 -10 -13 -34 -15 -52
-9 -69 -19 -99 -29 -92 -6 3 -7 1 -3 -5 12 -19 -5 -81 -23 -85 -12 -4 -13 -5
-1 -6 12 -1 15 -22 16 -124 0 -171 34 -308 113 -466 45 -89 112 -105 155 -38
20 29 34 93 18 84 -6 -5 -8 0 -5 13 5 20 -7 25 -67 32 -18 2 -32 16 -50 49
-14 26 -33 54 -42 64 -20 19 -23 32 -8 37 7 2 5 17 -4 43 -8 22 -15 35 -15 29
-1 -7 -7 -14 -14 -17 -10 -4 -12 3 -9 25 3 22 7 27 14 17 6 -10 7 -6 2 10 -12
43 -5 180 10 209 8 15 21 43 30 62 8 19 37 70 64 113 l49 78 158 2 c129 2 161
-1 173 -13 16 -15 75 -138 87 -177 4 -15 1 -23 -12 -26 -15 -4 -15 -5 2 -6 27
-1 44 -64 52 -181 7 -106 -15 -230 -63 -354 -19 -49 -32 -97 -29 -107 9 -27
36 -32 65 -11 35 26 75 188 85 345 4 64 11 117 16 117 12 0 11 57 -1 65 -5 3
-10 12 -10 18 0 7 4 6 10 -3 8 -12 10 -11 10 6 0 11 -4 24 -9 30 -6 5 -11 34
-12 64 -1 30 -5 60 -8 65 -3 6 -6 28 -6 50 -1 22 -13 67 -28 100 l-28 59 56
49 c31 27 62 62 70 78 50 96 -33 186 -206 224 -79 17 -80 17 -65 38 52 72 51
67 52 187 1 108 3 121 37 206 66 166 72 281 18 366 -53 84 -142 100 -258 48
l-67 -31 -61 33 c-48 26 -75 33 -140 38 l-80 5 -6 39 c-4 25 -16 48 -33 63
-31 26 -27 26 -85 8z m87 -25 c9 -12 17 -37 17 -58 0 -36 1 -37 40 -39 57 -4
157 -23 178 -35 17 -9 14 -13 -24 -48 -75 -67 -121 -84 -231 -88 -113 -4 -115
-3 -68 72 34 54 30 70 -21 81 -16 4 -34 16 -40 27 -35 66 99 145 149 88z m591
-138 c14 -10 36 -38 49 -63 21 -39 23 -54 19 -129 -3 -70 -11 -103 -45 -189
-41 -102 -42 -108 -42 -221 0 -114 -1 -118 -30 -158 -67 -93 -177 -145 -312
-146 -100 -1 -133 15 -152 74 -11 34 -13 35 -94 52 -82 17 -84 18 -170 98
-133 125 -190 140 -267 69 -24 -22 -48 -39 -52 -37 -4 2 -26 14 -47 28 l-39
24 61 57 c83 78 157 103 303 104 104 0 106 0 93 20 -21 33 -27 129 -14 200
l12 65 104 0 c125 0 187 23 258 94 l45 45 27 -32 c22 -26 27 -29 35 -15 11 20
69 57 118 75 45 17 106 10 140 -15z m201 -1066 c0 -2 -8 -10 -17 -17 -16 -13
-17 -12 -4 4 13 16 21 21 21 13z m-72 -780 c-7 -8 -15 -12 -17 -11 -5 6 10 25
20 25 5 0 4 -6 -3 -14z m2 -42 c0 -2 -7 -4 -15 -4 -8 0 -15 4 -15 10 0 5 7 7
15 4 8 -4 15 -8 15 -10z m-579 -16 c11 -21 11 -22 -4 -9 -10 7 -17 17 -17 22
0 15 9 10 21 -13z m542 -115 c2 -5 -1 -24 -9 -43 l-12 -35 -1 43 c-1 37 10 55
22 35z"/>
<path d="M5531 4008 c-13 -7 -33 -25 -44 -39 l-19 -27 41 -58 c22 -33 54 -75
71 -94 l31 -35 25 30 c53 65 55 136 6 193 -31 37 -76 49 -111 30z m59 -68 c-9
-6 -9 -9 1 -12 14 -5 16 -48 5 -92 l-7 -29 -23 34 c-12 19 -32 51 -45 72 l-23
37 24 9 c27 10 87 -7 68 -19z"/>
<path d="M5317 3882 c-24 -26 -21 -57 6 -79 13 -10 27 -30 30 -45 6 -22 2 -30
-23 -48 -42 -30 -68 -20 -72 28 -2 28 -10 40 -30 52 -25 13 -31 13 -55 0 -54
-30 -34 -110 28 -110 15 0 31 4 34 10 12 20 52 -20 58 -57 8 -45 -7 -67 -33
-53 -10 6 -26 10 -35 10 -21 0 -65 -44 -65 -65 0 -22 45 -65 68 -65 35 0 65
34 65 71 0 52 12 61 53 37 39 -23 42 -37 14 -63 -39 -35 -16 -97 35 -97 28 0
65 31 65 54 0 6 -16 25 -35 44 -42 39 -43 47 -10 68 32 21 65 6 65 -28 0 -25
28 -56 51 -56 8 0 25 7 37 16 54 38 -3 126 -61 95 -38 -20 -64 -7 -70 37 -5
40 13 65 39 55 24 -9 62 6 69 28 4 12 0 30 -9 44 -32 48 -103 20 -92 -36 7
-36 -11 -42 -46 -17 -34 24 -39 72 -9 88 28 15 35 47 17 75 -20 30 -65 33 -89
7z m71 -4 c27 -27 7 -78 -29 -78 -21 0 -49 26 -49 45 0 35 53 58 78 33z m-158
-108 c27 -27 25 -58 -4 -71 -51 -24 -99 38 -56 73 28 23 35 23 60 -2z m281 0
c20 -11 26 -54 8 -65 -16 -11 -56 3 -63 21 -4 10 1 25 10 35 20 22 20 22 45 9z
m-96 -101 c8 -15 15 -35 15 -43 0 -24 -29 -46 -60 -46 -58 0 -82 91 -32 116
33 16 60 7 77 -27z m143 -85 c29 -20 28 -50 -3 -70 -24 -16 -27 -16 -45 1 -25
22 -26 61 -2 74 23 14 24 14 50 -5z m-290 -26 c7 -7 12 -21 12 -33 0 -28 -19
-45 -50 -45 -31 0 -50 17 -50 45 0 28 19 45 50 45 14 0 31 -5 38 -12z m152
-66 c18 -14 22 -25 16 -45 -5 -22 -12 -27 -36 -27 -42 0 -62 40 -35 70 22 25
27 25 55 2z"/>
<path d="M5353 3673 c-7 -2 -13 -17 -12 -31 0 -24 1 -25 9 -7 5 11 9 14 9 8 1
-16 37 -17 47 -1 4 6 -1 17 -11 25 -20 14 -23 14 -42 6z"/>
<path d="M2948 4202 c-10 -2 -18 -8 -18 -13 0 -12 57 -12 64 0 7 10 -22 19
-46 13z"/>
<path d="M2325 4078 c-69 -9 -143 -29 -238 -65 -63 -23 -86 -26 -295 -33
l-227 -7 210 -2 210 -1 -32 -26 c-18 -14 -33 -30 -33 -35 0 -6 -11 -25 -23
-42 -55 -74 -57 -118 -15 -250 15 -48 19 -70 11 -78 -6 -6 -62 -17 -124 -25
-63 -9 -118 -19 -123 -24 -4 -4 -10 -46 -13 -93 l-6 -85 -56 -5 c-31 -2 -229
-5 -440 -5 -211 -1 -386 -4 -389 -7 -3 -3 195 -5 440 -5 l445 0 6 -144 c7
-164 25 -326 39 -342 21 -28 500 -47 838 -33 146 5 290 13 320 17 l54 7 86
252 85 253 210 2 210 3 -207 2 c-115 2 -208 5 -208 6 0 1 27 83 60 182 33 99
60 184 60 189 0 11 -104 3 -365 -29 -110 -14 -219 -27 -242 -30 -55 -6 -55 -2
2 125 37 83 45 110 45 161 0 65 -17 106 -53 129 -39 24 -178 46 -242 38z m166
-181 c18 -14 35 -57 22 -57 -4 0 -9 -15 -10 -33 -1 -31 -43 -119 -84 -178 -17
-24 -30 -27 -207 -54 -105 -15 -197 -25 -205 -22 -34 13 -28 197 6 219 7 4 26
8 43 8 19 0 39 9 53 24 20 21 29 24 75 19 49 -5 54 -4 79 27 26 31 28 31 65
19 50 -17 67 -15 105 15 37 29 37 29 58 13z m619 -277 c0 -5 -4 -10 -10 -10
-5 0 -10 5 -10 10 0 6 5 10 10 10 6 0 10 -4 10 -10z m-473 -123 c64 -17 123
-63 154 -122 31 -58 22 -65 -89 -65 -74 0 -86 2 -102 22 -14 18 -30 23 -88 26
-60 4 -79 0 -127 -22 -57 -26 -60 -26 -301 -26 -134 0 -244 4 -244 8 0 16 86
92 122 107 46 19 108 19 151 1 32 -13 90 -71 99 -98 3 -8 23 7 55 42 57 62
123 102 204 124 69 19 102 19 166 3z m-677 -206 c0 -3 -12 -17 -27 -31 -29
-28 -62 -94 -63 -126 0 -64 57 -133 117 -141 33 -4 45 0 83 29 60 46 77 91 61
164 -7 30 -24 68 -38 84 l-25 30 121 0 c67 0 121 -3 121 -6 0 -3 -13 -22 -29
-42 -33 -43 -45 -73 -62 -161 -25 -130 -110 -205 -233 -205 -37 0 -73 7 -92
17 -42 22 -89 77 -104 122 -17 52 -9 170 16 225 l21 45 66 1 c37 0 67 -2 67
-5z m848 1 c10 -7 10 -20 1 -63 -21 -101 -95 -195 -192 -244 -48 -24 -107 -34
-107 -17 0 4 20 36 45 71 56 80 79 147 73 212 l-5 49 86 0 c47 0 92 -4 99 -8z
m-798 -122 c0 -5 -5 -10 -11 -10 -5 0 -7 5 -4 10 3 6 8 10 11 10 2 0 4 -4 4
-10z m20 -15 c0 -8 -4 -15 -10 -15 -5 0 -7 7 -4 15 4 8 8 15 10 15 2 0 4 -7 4
-15z"/>
<path d="M2653 3983 c15 -2 37 -2 50 0 12 2 0 4 -28 4 -27 0 -38 -2 -22 -4z"/>
<path d="M2758 3983 c7 -3 16 -2 19 1 4 3 -2 6 -13 5 -11 0 -14 -3 -6 -6z"/>
<path d="M2993 3983 c9 -2 23 -2 30 0 6 3 -1 5 -18 5 -16 0 -22 -2 -12 -5z"/>
<path d="M3053 3983 c9 -2 25 -2 35 0 9 3 1 5 -18 5 -19 0 -27 -2 -17 -5z"/>
<path d="M3438 3983 c172 -2 451 -2 620 0 169 1 28 2 -313 2 -341 0 -479 -1
-307 -2z"/>
<path d="M4410 3984 c36 -7 200 -9 200 -2 0 4 -48 7 -107 7 -60 -1 -101 -3
-93 -5z"/>
<path d="M38 3973 c23 -2 59 -2 80 0 20 2 1 4 -43 4 -44 0 -61 -2 -37 -4z"/>
<path d="M418 3973 c7 -3 16 -2 19 1 4 3 -2 6 -13 5 -11 0 -14 -3 -6 -6z"/>
<path d="M1448 3973 c12 -2 30 -2 40 0 9 3 -1 5 -23 4 -22 0 -30 -2 -17 -4z"/>
<path d="M1518 3973 c6 -2 18 -2 25 0 6 3 1 5 -13 5 -14 0 -19 -2 -12 -5z"/>
<path d="M3879 3764 c-57 -17 -134 -90 -143 -135 -12 -63 -7 -99 19 -124 36
-37 79 -31 133 18 20 18 24 19 37 6 14 -14 55 -155 55 -191 0 -17 -12 -18
-152 -20 l-153 -2 155 -6 c85 -4 155 -8 156 -9 1 -2 2 -11 12 -144 16 -198 -2
-501 -29 -518 -8 -4 -8 -9 -1 -13 12 -7 9 -40 -15 -161 -24 -119 -21 -274 6
-354 57 -164 171 -261 335 -283 89 -12 195 5 273 44 101 50 213 187 198 241
-4 15 -3 18 3 8 12 -17 18 -6 26 49 4 31 3 39 -3 25 -9 -18 -10 -17 -10 8 -1
16 5 30 14 33 8 4 15 10 15 16 0 5 -5 6 -11 2 -8 -5 -8 -1 0 14 6 11 11 27 10
34 0 7 -5 4 -10 -7 -6 -14 -8 -1 -6 43 2 34 -1 62 -5 62 -4 0 -8 5 -8 11 0 5
5 7 10 4 7 -4 8 3 4 22 -33 136 -113 244 -219 295 -35 17 -48 31 -64 67 -24
57 -45 140 -65 255 -9 49 -17 90 -19 92 -2 2 -14 -55 -27 -126 -13 -72 -27
-130 -31 -130 -4 0 -7 -6 -6 -12 1 -36 -4 -59 -12 -54 -5 3 -11 -3 -14 -14 -3
-11 -1 -18 4 -14 5 3 9 0 9 -5 0 -6 -5 -11 -11 -11 -6 0 -49 -18 -96 -40 -109
-51 -115 -47 -108 59 13 187 15 234 16 356 1 72 4 136 7 143 3 10 72 12 314
12 171 -1 313 1 316 4 3 4 -139 6 -316 6 l-322 0 0 68 c0 132 -33 270 -78 331
-43 58 -105 73 -193 45z m-19 -184 c0 -5 -5 -10 -11 -10 -5 0 -7 5 -4 10 3 6
8 10 11 10 2 0 4 -4 4 -10z m584 -586 c3 -31 27 -118 53 -193 66 -192 63 -280
-13 -340 -35 -28 -75 -27 -107 3 -27 25 -32 40 -41 116 -5 44 17 178 35 211
10 19 34 139 44 217 9 65 20 60 29 -14z m-149 -383 c3 -6 9 -41 14 -79 5 -38
15 -78 22 -90 13 -21 43 -37 64 -35 90 10 135 45 155 120 7 27 16 51 20 56 3
4 23 -9 43 -28 84 -82 86 -243 5 -403 -63 -125 -225 -185 -339 -126 -56 28
-121 97 -150 158 -54 114 -46 244 22 343 46 66 126 113 144 84z m443 -66 c-3
-3 -9 2 -12 12 -6 14 -5 15 5 6 7 -7 10 -15 7 -18z m41 -105 c0 -10 -3 -8 -9
5 -12 27 -12 43 0 25 5 -8 9 -22 9 -30z m-379 -526 c0 -17 -22 -14 -28 4 -2 7
3 12 12 12 9 0 16 -7 16 -16z"/>
<path d="M3260 3630 c0 -5 5 -10 10 -10 6 0 10 5 10 10 0 6 -4 10 -10 10 -5 0
-10 -4 -10 -10z"/>
<path d="M3510 3310 c-13 -8 -13 -10 2 -10 9 0 20 5 23 10 8 13 -5 13 -25 0z"/>
<path d="M3600 3309 c0 -5 5 -7 10 -4 6 3 10 8 10 11 0 2 -4 4 -10 4 -5 0 -10
-5 -10 -11z"/>
<path d="M223 3293 c82 -2 212 -2 290 0 78 1 12 3 -148 3 -160 0 -223 -2 -142
-3z"/>
<path d="M673 3293 c9 -2 25 -2 35 0 9 3 1 5 -18 5 -19 0 -27 -2 -17 -5z"/>
<path d="M3311 3239 c-58 -23 -110 -114 -111 -190 0 -106 30 -149 233 -336 62
-57 69 -72 35 -74 -18 -1 -16 -3 7 -8 36 -7 54 -40 72 -131 16 -83 8 -149 -28
-226 -52 -113 -164 -183 -271 -171 -101 12 -199 93 -213 176 -5 28 0 50 19 91
36 77 35 133 -3 171 -41 41 -83 39 -127 -5 -31 -31 -34 -39 -34 -95 0 -148
102 -321 224 -380 90 -44 182 -38 322 20 91 38 164 105 200 184 37 81 45 247
15 325 -28 74 -82 134 -205 229 -131 102 -166 141 -166 186 0 43 29 75 68 75
32 0 66 31 75 69 8 32 -15 74 -48 89 -30 14 -32 14 -64 1z m58 -80 c-19 -11
-24 -3 -8 14 8 9 16 11 18 5 2 -6 -3 -14 -10 -19z m-361 -697 c-2 -8 -8 -17
-15 -19 -7 -3 -9 4 -5 19 5 21 4 22 -11 9 -10 -7 -17 -9 -17 -3 0 6 6 12 13
15 20 7 38 -4 35 -21z"/>
<path d="M1000 3226 c-54 -15 -104 -40 -147 -72 -17 -13 -36 -24 -41 -24 -5 0
-41 15 -78 33 -64 30 -76 32 -174 32 -84 -1 -116 -5 -160 -23 -104 -41 -192
-132 -238 -244 -21 -52 -26 -85 -30 -185 l-5 -123 -66 -2 -66 -1 67 -6 c36 -3
68 -8 70 -11 2 -3 12 -39 22 -80 25 -102 77 -237 136 -348 38 -71 49 -102 47
-134 -1 -33 4 -45 26 -64 47 -40 142 -26 161 23 11 28 -23 81 -60 93 -18 6
-38 8 -44 5 -19 -12 -45 22 -83 103 -63 135 -82 225 -82 397 0 120 4 162 19
207 42 128 124 219 231 255 63 21 182 23 219 3 30 -15 63 -80 47 -90 -6 -3 -6
-11 -1 -20 23 -36 -5 -161 -42 -183 -24 -15 -68 6 -68 33 0 15 11 26 35 36 41
17 45 37 12 59 -19 12 -30 13 -56 4 -72 -25 -68 -118 9 -183 38 -31 73 -33
118 -6 l34 21 34 -21 c36 -23 72 -21 126 6 74 38 50 195 -30 194 -35 -1 -65
-24 -60 -47 3 -14 13 -18 46 -17 39 1 42 -1 42 -26 0 -46 -60 -81 -101 -59
-21 11 -22 16 -16 106 7 125 37 191 105 230 88 52 206 31 281 -49 51 -55 73
-134 78 -285 4 -102 2 -133 -7 -133 -9 0 -9 -4 -2 -12 22 -29 -52 -306 -120
-443 -33 -68 -41 -75 -85 -75 -47 0 -64 -10 -78 -44 -17 -39 1 -78 45 -101 75
-39 166 12 140 80 -8 22 -5 33 25 74 54 74 141 265 172 376 25 90 28 115 27
250 0 130 -3 159 -23 215 -63 181 -163 273 -308 285 -33 2 -77 -1 -103 -9z
m-749 -886 c3 -19 5 -25 22 -57 19 -36 21 -43 8 -43 -5 0 -11 8 -14 18 -3 9
-12 34 -21 55 -9 21 -12 37 -6 37 5 0 11 -4 11 -10z m193 -286 c20 -8 21 -30
0 -38 -12 -5 -14 -1 -8 16 5 17 3 20 -10 15 -10 -4 -15 -3 -11 3 7 12 8 12 29
4z m696 -38 c-7 -9 -17 -16 -22 -16 -6 0 -6 6 1 14 6 7 8 22 5 32 -6 18 -6 18
11 2 15 -14 16 -20 5 -32z"/>
<path d="M3670 3170 c0 -5 5 -10 10 -10 6 0 10 5 10 10 0 6 -4 10 -10 10 -5 0
-10 -4 -10 -10z"/>
<path d="M3870 2920 c0 -5 7 -10 16 -10 8 0 12 5 9 10 -3 6 -10 10 -16 10 -5
0 -9 -4 -9 -10z"/>
<path d="M2334 2404 c-101 -67 -144 -139 -145 -237 0 -34 1 -68 3 -76 2 -8
-16 -21 -45 -34 -49 -20 -49 -20 -90 0 l-41 20 43 46 c34 37 42 52 37 71 -8
33 -27 35 -116 12 -43 -11 -84 -17 -95 -12 -17 6 -14 12 28 47 55 48 68 68 60
97 -8 31 -38 28 -136 -13 -93 -38 -185 -57 -214 -43 -10 6 -7 0 8 -15 24 -21
32 -23 85 -16 33 3 76 10 98 14 36 7 38 7 27 -13 -6 -12 -16 -24 -21 -27 -18
-11 -11 -41 15 -65 22 -20 31 -22 90 -18 73 6 77 1 48 -51 -23 -39 -9 -66 33
-66 16 -1 36 -5 44 -10 8 -5 49 -10 90 -10 41 -1 102 -7 135 -14 114 -25 239
6 289 71 58 76 55 228 -6 288 -18 18 -55 38 -96 50 -37 12 -72 23 -78 26 -6 2
-28 -7 -50 -22z m98 -12 c51 -19 70 -32 47 -32 -8 0 -32 -9 -53 -20 -37 -18
-40 -18 -53 -2 -13 16 -14 15 -10 -5 3 -14 -3 -29 -19 -44 -35 -32 -29 -44 8
-18 l31 23 41 -47 c23 -26 45 -47 49 -47 5 0 -10 21 -32 46 -23 26 -41 50 -41
54 0 9 74 30 115 33 25 2 33 -4 47 -32 20 -39 16 -50 -8 -30 -16 13 -16 12 -5
-9 7 -12 15 -20 19 -18 5 3 5 -25 1 -60 -9 -86 -35 -114 -138 -147 -80 -26
-152 -25 -185 2 -43 36 -47 180 -6 245 18 30 123 124 140 126 3 0 26 -8 52
-18z"/>
<path d="M2286 2219 c-17 -34 -17 -34 2 -12 l19 22 21 -28 c15 -20 17 -32 10
-47 -8 -17 -8 -18 5 -2 13 16 15 16 35 -2 l22 -20 -20 22 -20 22 32 33 c18 18
27 33 22 33 -6 0 -21 -12 -35 -26 l-24 -25 -26 32 -27 33 -16 -35z"/>
<path d="M2720 2340 c0 -5 5 -10 11 -10 5 0 7 5 4 10 -3 6 -8 10 -11 10 -2 0
-4 -4 -4 -10z"/>
<path d="M2700 1829 c0 -5 5 -7 10 -4 6 3 10 8 10 11 0 2 -4 4 -10 4 -5 0 -10
-5 -10 -11z"/>
<path d="M3666 1603 c-1 -2 -827 -3 -1834 -3 l-1832 0 0 -302 0 -303 77 1 c43
1 80 -1 83 -5 3 -4 39 -2 80 3 42 6 89 8 105 5 17 -4 53 -8 80 -9 28 -1 66 -7
85 -14 l35 -13 -45 -10 c-35 -7 -18 -8 80 -6 116 2 148 4 240 19 28 4 32 3 20
-6 -12 -10 -12 -11 5 -4 11 4 31 8 45 9 14 1 36 6 50 12 14 6 57 9 95 6 121
-7 237 -6 326 2 109 10 136 3 155 -38 l15 -32 -4 31 c-3 30 -3 31 47 32 27 0
54 -2 60 -6 13 -7 37 -12 91 -17 93 -9 115 -8 133 8 12 11 42 18 90 21 64 3
74 1 87 -17 8 -12 28 -22 47 -23 18 -2 60 -8 92 -13 33 -5 64 -7 69 -4 4 3 33
5 62 4 44 0 53 3 48 14 -3 8 0 15 6 15 6 0 11 -4 11 -10 0 -5 14 -10 30 -10
18 0 33 -6 37 -15 5 -14 18 -15 87 -9 44 4 93 6 109 5 15 -1 27 3 27 9 0 5 23
10 50 10 31 0 61 7 77 18 15 9 24 11 20 5 -6 -9 -1 -13 13 -13 13 0 19 4 14
12 -4 7 -3 8 4 4 7 -4 17 -4 23 0 7 4 28 9 48 11 20 2 50 6 66 8 118 14 258
17 299 5 25 -7 46 -16 46 -20 0 -3 25 -8 55 -9 34 -1 55 2 55 9 0 8 6 7 21 0
16 -9 24 -8 38 4 11 10 36 16 64 16 25 0 69 5 98 11 40 9 53 8 59 -1 6 -9 9
-9 12 0 2 8 43 12 125 15 67 1 126 6 131 9 6 3 13 2 16 -2 3 -5 28 -7 56 -4
27 2 50 1 50 -4 0 -5 11 -10 25 -10 16 -1 22 2 18 10 -4 6 1 5 10 -2 9 -8 20
-11 26 -8 17 11 39 -5 34 -24 -5 -17 -2 -18 28 -10 36 11 44 7 44 -18 0 -9 9
-18 20 -19 11 -2 14 0 8 3 -18 8 -16 24 1 24 8 0 16 -10 18 -22 2 -13 8 -22
13 -21 6 0 31 -15 58 -34 26 -19 47 -31 47 -27 0 4 8 -1 18 -12 19 -20 36 -54
34 -66 -1 -5 5 -8 13 -8 8 0 15 9 15 20 0 11 -3 19 -7 17 -5 -1 -8 3 -8 8 0 6
7 9 15 8 8 -1 18 4 23 10 8 11 6 -3 -8 -52 -5 -16 -2 -18 15 -14 14 4 18 8 10
13 -7 5 -3 9 12 13 34 10 38 9 31 -10 -5 -12 -2 -15 10 -10 9 3 29 2 46 -3 23
-6 33 -5 43 7 9 11 25 14 60 11 26 -3 48 -2 48 1 0 3 15 6 33 7 50 2 111 16
120 28 6 8 10 7 14 -1 8 -21 20 -15 27 13 6 24 28 54 39 54 3 0 7 -9 10 -20 3
-11 1 -20 -4 -20 -5 0 -9 -5 -9 -10 0 -22 41 12 46 38 4 20 18 33 52 49 34 15
49 18 54 10 5 -8 8 -6 8 6 0 18 15 23 24 8 7 -10 95 6 113 21 7 5 21 7 32 3
10 -3 22 -1 26 5 3 6 11 7 18 3 6 -3 30 -6 54 -4 28 1 43 -2 43 -10 0 -8 6 -7
18 3 18 16 72 42 109 53 37 10 194 8 206 -4 6 -6 17 -7 26 -2 9 5 30 11 46 15
29 6 29 6 10 -10 -19 -15 -19 -15 10 -8 28 7 29 6 12 -10 -9 -9 -22 -14 -28
-10 -7 4 -9 3 -5 -4 3 -6 -3 -12 -16 -15 -13 -2 3 -4 34 -3 l58 1 0 235 c0
224 -1 236 -20 248 -14 8 -20 9 -20 1 0 -8 -86 -9 -311 -5 -171 4 -314 8 -318
11 -4 2 -24 0 -44 -5 -55 -12 -77 -3 -77 31 0 31 18 49 30 29 6 -10 8 -10 12
1 2 7 22 13 45 14 22 2 45 5 49 7 23 13 45 17 39 8 -3 -6 0 -10 9 -10 8 0 16
6 19 13 2 7 10 1 17 -15 7 -15 17 -25 21 -22 5 3 4 14 -1 25 -10 17 -7 19 25
19 19 0 35 -5 35 -10 0 -7 6 -7 19 -1 14 8 22 7 31 -4 7 -8 16 -15 21 -15 14
0 11 28 -3 33 -7 2 -10 8 -5 12 8 10 38 -26 31 -37 -3 -5 4 -8 15 -8 12 0 20
3 20 8 -1 4 -1 13 0 21 2 22 15 3 16 -21 0 -12 6 -23 13 -25 8 -3 10 2 6 14
-3 11 1 8 11 -7 9 -14 14 -17 11 -7 -7 21 2 22 24 2 16 -14 18 -14 23 0 4 8 1
15 -5 15 -9 0 -9 3 1 13 10 10 16 7 30 -11 18 -25 66 -28 66 -5 0 6 3 15 8 19
4 4 7 0 7 -9 0 -22 16 -22 24 -1 5 14 9 14 22 3 12 -10 17 -10 23 0 6 8 20 10
45 6 l36 -7 0 37 0 36 -1165 -2 c-641 -2 -1167 -4 -1169 -6z m104 -343 c0 -5
-4 -10 -10 -10 -5 0 -10 5 -10 10 0 6 5 10 10 10 6 0 10 -4 10 -10z m-1401
-50 c0 -10 -3 -8 -9 5 -12 27 -12 43 0 25 5 -8 9 -22 9 -30z m1271 -14 c0 -3
-4 -8 -10 -11 -5 -3 -10 -1 -10 4 0 6 5 11 10 11 6 0 10 -2 10 -4z m260 -47
c0 -6 -4 -7 -10 -4 -5 3 -10 11 -10 16 0 6 5 7 10 4 6 -3 10 -11 10 -16z
m-626 3 c3 -5 -1 -9 -9 -9 -8 0 -15 4 -15 9 0 4 4 8 9 8 6 0 12 -4 15 -8z
m296 -4 c0 -4 -4 -8 -9 -8 -6 0 -12 4 -15 8 -3 5 1 9 9 9 8 0 15 -4 15 -9z
m-247 -23 c-3 -9 -8 -14 -10 -11 -3 3 -2 9 2 15 9 16 15 13 8 -4z m371 7 c3
-5 -1 -9 -9 -9 -8 0 -15 4 -15 9 0 4 4 8 9 8 6 0 12 -4 15 -8z m1136 -2 c0 -5
-2 -10 -4 -10 -3 0 -8 5 -11 10 -3 6 -1 10 4 10 6 0 11 -4 11 -10z m-2550 -14
c0 -8 -7 -16 -15 -20 -17 -6 -18 -4 -9 18 8 20 24 21 24 2z m1225 -4 c-3 -3
-11 0 -18 7 -9 10 -8 11 6 5 10 -3 15 -9 12 -12z m-445 -7 c-7 -9 -15 -13 -19
-10 -3 3 1 10 9 15 21 14 24 12 10 -5z m100 -6 c0 -6 -4 -7 -10 -4 -5 3 -10
11 -10 16 0 6 5 7 10 4 6 -3 10 -11 10 -16z m395 11 c3 -6 0 -17 -9 -25 -9 -9
-17 -11 -21 -5 -3 5 -1 10 5 10 7 0 10 7 6 15 -6 17 9 21 19 5z m-692 -42 c6
-22 5 -22 -8 -4 -17 22 -20 40 -6 32 5 -3 11 -16 14 -28z m-973 12 c0 -5 -5
-10 -11 -10 -5 0 -7 5 -4 10 3 6 8 10 11 10 2 0 4 -4 4 -10z m1740 0 c0 -5 -4
-10 -10 -10 -5 0 -10 5 -10 10 0 6 5 10 10 10 6 0 10 -4 10 -10z m490 -5 c14
-8 19 -14 10 -14 -8 0 -24 6 -34 14 -25 19 -9 19 24 0z m80 11 c0 -3 -4 -8
-10 -11 -5 -3 -10 -1 -10 4 0 6 5 11 10 11 6 0 10 -2 10 -4z m-1390 -21 c-7
-9 -15 -13 -19 -10 -3 3 1 10 9 15 21 14 24 12 10 -5z m170 5 c0 -5 -4 -10
-10 -10 -5 0 -10 5 -10 10 0 6 5 10 10 10 6 0 10 -4 10 -10z m247 -16 c-3 -3
-12 -4 -19 -1 -8 3 -5 6 6 6 11 1 17 -2 13 -5z m1563 -14 c0 -5 -5 -10 -11
-10 -5 0 -7 5 -4 10 3 6 8 10 11 10 2 0 4 -4 4 -10z m464 -16 c3 -8 2 -12 -4
-9 -6 3 -10 10 -10 16 0 14 7 11 14 -7z m-1774 -44 c0 -5 -4 -10 -10 -10 -5 0
-10 5 -10 10 0 6 5 10 10 10 6 0 10 -4 10 -10z m-1645 -10 c-3 -5 -12 -10 -18
-10 -7 0 -6 4 3 10 19 12 23 12 15 0z m3435 0 c0 -5 -5 -10 -11 -10 -5 0 -7 5
-4 10 3 6 8 10 11 10 2 0 4 -4 4 -10z m-758 -112 c-6 -6 -8 -1 -7 14 3 32 7
36 12 14 3 -10 1 -22 -5 -28z m578 22 c0 -5 -5 -10 -11 -10 -5 0 -7 5 -4 10 3
6 8 10 11 10 2 0 4 -4 4 -10z m-90 -28 c0 -11 -88 -25 -101 -16 -18 11 0 19
50 22 28 2 51 -1 51 -6z m-190 -42 c0 -5 -2 -10 -4 -10 -3 0 -8 5 -11 10 -3 6
-1 10 4 10 6 0 11 -4 11 -10z"/>
<path d="M5970 1520 c0 -5 7 -7 15 -4 8 4 15 8 15 10 0 2 -7 4 -15 4 -8 0 -15
-4 -15 -10z"/>
<path d="M1925 960 c-3 -5 3 -10 15 -10 12 0 18 5 15 10 -3 6 -10 10 -15 10
-5 0 -12 -4 -15 -10z"/>
<path d="M5762 958 c-30 -5 -52 -12 -49 -14 5 -5 149 16 156 22 7 7 -51 2
-107 -8z"/>
<path d="M1981 944 c0 -11 3 -14 6 -6 3 7 2 16 -1 19 -3 4 -6 -2 -5 -13z"/>
<path d="M3940 929 c0 -11 4 -18 10 -14 5 3 7 12 3 20 -7 21 -13 19 -13 -6z"/>
<path d="M5603 928 c-24 -5 -43 -14 -43 -19 0 -6 7 -6 19 1 11 5 33 10 50 10
16 0 33 5 36 10 7 12 -4 11 -62 -2z"/>
<path d="M5960 931 c0 -9 22 -31 32 -31 18 0 7 36 -12 37 -11 1 -20 -2 -20 -6z"/>
<path d="M2013 895 c-6 -14 -7 -25 -2 -25 11 0 22 25 17 39 -1 6 -8 -1 -15
-14z"/>
<path d="M5153 909 c-18 -5 -33 -12 -33 -15 0 -9 53 5 65 17 10 10 11 10 -32
-2z"/>
<path d="M4060 895 c0 -8 5 -15 10 -15 6 0 10 7 10 15 0 8 -4 15 -10 15 -5 0
-10 -7 -10 -15z"/>
<path d="M5440 890 c-18 -12 -2 -12 25 0 13 6 15 9 5 9 -8 0 -22 -4 -30 -9z"/>
<path d="M5966 876 c3 -8 1 -24 -6 -35 -16 -30 5 -26 25 5 14 22 15 28 4 35
-21 13 -29 11 -23 -5z"/>
<path d="M5534 849 c-10 -20 -12 -35 -6 -41 6 -6 12 4 17 29 7 36 8 37 16 14
11 -29 24 -21 14 8 -9 29 -22 26 -41 -10z"/>
<path d="M4031 857 c-11 -14 -5 -27 12 -27 6 0 7 3 4 7 -4 3 -2 12 4 20 7 8 8
13 1 13 -5 0 -15 -6 -21 -13z"/>
<path d="M1985 850 c3 -5 2 -10 -4 -10 -5 0 -9 -9 -8 -20 1 -19 16 -29 18 -12
0 4 2 17 5 30 2 12 -1 22 -7 22 -5 0 -7 -4 -4 -10z"/>
<path d="M5981 823 c0 -5 4 -17 9 -28 8 -18 9 -17 9 8 1 15 -3 27 -9 27 -5 0
-10 -3 -9 -7z"/>
<path d="M5856 778 c-10 -38 -7 -42 14 -23 23 21 26 45 6 45 -7 0 -16 -10 -20
-22z"/>
<path d="M370 765 c0 -3 6 -14 12 -25 10 -15 10 -25 2 -38 -10 -15 -8 -18 7
-18 21 0 24 21 9 60 -8 22 -30 37 -30 21z"/>
<path d="M3298 746 c-5 -26 22 -49 47 -40 11 5 14 2 9 -10 -3 -9 -2 -16 4 -16
5 0 12 9 15 19 5 22 -16 35 -44 26 -13 -5 -16 -1 -12 13 2 11 0 22 -5 26 -5 3
-12 -5 -14 -18z"/>
<path d="M5456 755 c-3 -8 -1 -15 3 -15 5 0 11 7 15 15 3 8 1 15 -3 15 -5 0
-11 -7 -15 -15z"/>
<path d="M4560 750 c0 -5 5 -10 11 -10 5 0 7 5 4 10 -3 6 -8 10 -11 10 -2 0
-4 -4 -4 -10z"/>
<path d="M736 733 c-6 -14 -5 -15 5 -6 7 7 10 15 7 18 -3 3 -9 -2 -12 -12z"/>
<path d="M3230 726 c0 -2 7 -7 16 -10 8 -3 12 -2 9 4 -6 10 -25 14 -25 6z"/>
<path d="M5430 714 c0 -10 5 -26 10 -34 8 -11 9 -7 4 15 -8 37 -14 45 -14 19z"/>
<path d="M4007 700 c-14 -11 -29 -20 -34 -20 -4 0 -14 -9 -21 -20 -10 -17 -10
-20 6 -20 10 0 22 -3 26 -7 12 -12 79 -12 104 0 12 6 22 16 22 24 0 18 -10 16
-32 -4 -17 -15 -20 -15 -35 -1 -20 21 -10 48 17 48 12 0 18 5 15 10 -10 16
-40 12 -68 -10z"/>
<path d="M4530 710 c0 -5 5 -10 10 -10 6 0 10 5 10 10 0 6 -4 10 -10 10 -5 0
-10 -4 -10 -10z"/>
<path d="M3666 697 c3 -10 9 -15 12 -12 3 3 0 11 -7 18 -10 9 -11 8 -5 -6z"/>
<path d="M4056 675 c-3 -8 -1 -15 4 -15 13 0 22 18 11 24 -5 3 -11 -1 -15 -9z"/>
<path d="M4231 674 c0 -11 3 -14 6 -6 3 7 2 16 -1 19 -3 4 -6 -2 -5 -13z"/>
<path d="M4526 674 c-8 -20 -8 -24 2 -24 4 0 8 9 9 20 2 24 -3 26 -11 4z"/>
<path d="M1565 670 c3 -5 8 -10 11 -10 2 0 4 5 4 10 0 6 -5 10 -11 10 -5 0 -7
-4 -4 -10z"/>
<path d="M3175 670 c3 -5 8 -10 11 -10 2 0 4 5 4 10 0 6 -5 10 -11 10 -5 0 -7
-4 -4 -10z"/>
<path d="M4920 670 c0 -6 7 -13 15 -17 24 -9 27 1 5 15 -13 8 -20 8 -20 2z"/>
<path d="M370 660 c0 -5 5 -10 10 -10 6 0 10 5 10 10 0 6 -4 10 -10 10 -5 0
-10 -4 -10 -10z"/>
<path d="M3211 654 c0 -11 3 -14 6 -6 3 7 2 16 -1 19 -3 4 -6 -2 -5 -13z"/>
<path d="M4911 624 c0 -11 3 -14 6 -6 3 7 2 16 -1 19 -3 4 -6 -2 -5 -13z"/>
<path d="M5580 590 c0 -5 5 -10 10 -10 6 0 10 5 10 10 0 6 -4 10 -10 10 -5 0
-10 -4 -10 -10z"/>
<path d="M5973 577 c3 -9 2 -19 -4 -23 -5 -3 -7 -14 -4 -25 4 -11 2 -19 -4
-19 -10 0 -16 29 -12 53 0 4 -3 7 -9 7 -23 0 -4 -79 25 -103 6 -5 -5 -6 -22
-3 -18 3 -33 1 -33 -4 0 -4 18 -7 40 -6 29 2 40 -1 42 -13 2 -8 3 20 3 63 0
59 -4 80 -14 84 -10 3 -12 0 -8 -11z"/>
<path d="M5674 555 c-3 -8 -4 -20 -2 -27 3 -7 7 -1 10 15 6 29 1 36 -8 12z"/>
<path d="M5241 544 c0 -11 3 -14 6 -6 3 7 2 16 -1 19 -3 4 -6 -2 -5 -13z"/>
<path d="M1869 540 c-5 -28 -4 -50 2 -50 13 0 20 33 9 44 -5 5 -10 8 -11 6z"/>
<path d="M630 519 c0 -6 9 -22 20 -36 19 -24 20 -24 20 -5 0 11 -7 28 -16 36
-18 19 -24 20 -24 5z"/>
<path d="M3833 492 c1 -22 6 -44 9 -48 4 -3 5 13 3 36 -6 56 -16 66 -12 12z"/>
<path d="M4146 514 c-8 -22 -7 -44 2 -44 4 0 9 14 10 30 3 33 -2 39 -12 14z"/>
<path d="M1798 513 c7 -3 16 -2 19 1 4 3 -2 6 -13 5 -11 0 -14 -3 -6 -6z"/>
<path d="M4631 504 c0 -11 3 -14 6 -6 3 7 2 16 -1 19 -3 4 -6 -2 -5 -13z"/>
<path d="M5420 505 c-6 -8 -10 -21 -8 -31 2 -11 7 -6 15 15 13 34 11 38 -7 16z"/>
<path d="M188 485 c2 -14 8 -28 13 -31 15 -9 10 33 -5 45 -11 9 -12 6 -8 -14z"/>
<path d="M1635 495 l-50 -13 63 5 c34 3 77 9 95 13 30 7 29 8 -13 8 -25 0 -67
-6 -95 -13z"/>
<path d="M2125 480 c3 -5 8 -10 11 -10 2 0 4 5 4 10 0 6 -5 10 -11 10 -5 0 -7
-4 -4 -10z"/>
<path d="M4586 474 c-8 -21 1 -34 22 -33 15 1 15 2 -1 6 -12 3 -16 10 -12 24
8 23 0 26 -9 3z"/>
<path d="M1445 472 c-2 -3 0 -13 5 -23 8 -14 6 -19 -13 -22 -12 -3 0 -4 27 -3
45 1 50 3 57 29 7 27 7 28 -32 25 -22 -1 -42 -4 -44 -6z m55 -22 c0 -5 -7 -10
-15 -10 -8 0 -15 5 -15 10 0 6 7 10 15 10 8 0 15 -4 15 -10z"/>
<path d="M1548 473 c7 -3 16 -2 19 1 4 3 -2 6 -13 5 -11 0 -14 -3 -6 -6z"/>
<path d="M1560 450 c0 -5 5 -10 10 -10 6 0 10 5 10 10 0 6 -4 10 -10 10 -5 0
-10 -4 -10 -10z"/>
<path d="M5960 420 c0 -5 5 -10 10 -10 6 0 10 5 10 10 0 6 -4 10 -10 10 -5 0
-10 -4 -10 -10z"/>
<path d="M2895 410 c-8 -13 5 -13 25 0 13 8 13 10 -2 10 -9 0 -20 -4 -23 -10z"/>
<path d="M110 394 c0 -8 5 -12 10 -9 6 3 10 10 10 16 0 5 -4 9 -10 9 -5 0 -10
-7 -10 -16z"/>
<path d="M156 395 c4 -8 8 -15 10 -15 2 0 4 7 4 15 0 8 -4 15 -10 15 -5 0 -7
-7 -4 -15z"/>
<path d="M1260 400 c0 -5 5 -10 10 -10 6 0 10 5 10 10 0 6 -4 10 -10 10 -5 0
-10 -4 -10 -10z"/>
<path d="M5747 382 c-65 -1 -116 -6 -113 -10 6 -9 366 -3 366 6 0 8 -50 9
-253 4z"/>
<path d="M5256 371 c-3 -5 -48 -10 -99 -11 -50 0 -125 -3 -165 -5 -54 -3 -71
-1 -65 8 5 9 3 9 -8 1 -17 -14 -139 -17 -139 -3 0 12 -27 12 -32 -1 -2 -6 -96
-12 -233 -15 -126 -2 -329 -7 -450 -10 -121 -4 -299 -8 -395 -9 -117 -3 -175
-7 -178 -15 -2 -6 -8 -11 -14 -11 -6 0 -8 7 -4 15 5 13 -4 15 -57 12 -75 -4
-95 0 -100 22 -4 14 -5 14 -6 -1 0 -10 -6 -18 -13 -18 -6 0 -8 -3 -5 -6 3 -4
2 -14 -3 -23 -7 -14 -4 -17 18 -16 15 1 33 -3 40 -8 15 -12 17 4 2 19 -8 8 0
11 24 12 19 1 39 -5 46 -13 9 -10 17 -12 30 -5 9 5 20 7 23 4 3 -3 15 -1 26 5
18 10 20 9 14 -6 -5 -15 -4 -16 8 -7 8 6 37 12 64 13 28 1 59 3 70 6 11 3 14
2 8 -1 -7 -3 -13 -10 -13 -15 0 -6 8 -5 20 1 15 8 20 8 20 -2 0 -6 6 -4 13 6
17 24 59 14 50 -12 -4 -12 0 -10 16 6 15 15 27 20 34 14 7 -5 24 -7 40 -6 15
2 25 -1 23 -5 -3 -4 1 -8 9 -8 8 0 12 4 9 9 -3 4 2 5 10 2 9 -3 16 -12 16 -20
0 -8 4 -14 9 -14 12 0 9 33 -4 43 -5 4 4 5 20 1 17 -4 33 -12 37 -18 5 -7 8
-6 8 4 0 12 13 15 58 15 31 0 60 4 65 10 4 6 10 5 17 -5 7 -12 12 -12 22 -2
14 14 32 16 23 2 -7 -11 30 -8 41 3 4 4 13 2 20 -4 8 -7 14 -7 19 1 5 8 11 8
21 -1 10 -8 14 -8 14 0 0 6 5 11 11 11 6 0 9 -7 5 -15 -5 -13 -2 -14 22 -1 30
15 215 21 191 5 -8 -5 -9 -9 -3 -9 6 0 14 3 18 7 8 8 28 11 145 17 100 5 124
1 115 -18 -3 -6 1 -3 9 6 10 13 16 15 25 6 9 -9 12 -9 12 -1 0 8 35 12 108 13
59 1 136 2 171 3 55 1 65 -1 82 -22 l20 -24 16 22 15 23 23 -37 c17 -29 23
-34 28 -21 4 9 11 16 17 16 6 0 8 -4 5 -10 -3 -6 3 -10 14 -10 12 0 21 6 21
14 0 8 8 13 18 11 9 -2 17 -4 17 -5 0 -1 20 -3 45 -4 25 -2 52 -6 61 -10 10
-4 20 -3 23 3 7 11 37 3 48 -13 6 -8 8 -8 8 0 0 11 161 11 179 -1 6 -3 11 1
11 9 0 20 9 20 32 -1 17 -15 18 -15 18 10 0 29 15 44 26 26 4 -8 3 -9 -4 -5
-7 4 -12 1 -12 -9 0 -12 5 -15 16 -11 9 4 23 1 30 -5 11 -9 14 -9 14 0 0 7 4
9 10 6 5 -3 19 -1 31 5 16 9 24 8 40 -6 15 -13 19 -14 20 -3 1 8 5 3 9 -11 7
-22 8 -21 9 13 1 20 -2 38 -6 38 -5 1 -21 4 -38 7 -50 8 -185 3 -185 -9 0 -3
-19 -5 -42 -6 -24 0 -70 -1 -104 -3 -33 -2 -66 0 -72 4 -7 4 -12 3 -12 -2 0
-14 -200 -7 -232 8 -38 18 -35 30 7 30 19 0 35 5 35 11 0 7 -11 8 -30 4 -18
-4 -36 -2 -45 5 -8 7 -15 7 -19 1z m619 -61 c3 -6 -1 -7 -9 -4 -18 7 -21 14
-7 14 6 0 13 -4 16 -10z m-2555 -10 c0 -5 -2 -10 -4 -10 -3 0 -8 5 -11 10 -3
6 -1 10 4 10 6 0 11 -4 11 -10z"/>
<path d="M5450 371 c-90 -7 -82 -20 10 -16 36 2 77 3 93 4 15 1 27 6 27 11 0
6 -12 9 -27 8 -16 -1 -62 -4 -103 -7z"/>
<path d="M5595 370 c4 -6 11 -8 16 -5 14 9 11 15 -7 15 -8 0 -12 -5 -9 -10z"/>
<path d="M3136 312 c-5 -4 -242 -11 -493 -13 -148 -1 -213 -5 -213 -13 0 -7
-3 -7 -8 1 -5 8 -27 11 -67 8 -33 -3 -190 -7 -350 -9 -406 -7 -829 -15 -1035
-21 -96 -3 -352 -8 -569 -10 -217 -2 -396 -6 -398 -9 -3 -2 -2 -14 2 -26 6
-20 7 -21 21 -3 13 17 13 17 14 -2 1 -19 1 -19 19 2 15 19 20 20 25 8 6 -16
26 -16 38 0 4 6 8 1 8 -10 0 -12 3 -16 8 -9 11 16 52 24 52 11 0 -8 3 -8 8 -2
9 13 262 15 262 2 0 -6 5 -5 13 0 6 6 48 11 92 11 44 1 99 3 122 6 30 3 43 1
47 -10 3 -8 10 -14 17 -14 6 0 9 6 6 13 -4 10 30 13 163 12 93 0 172 -3 176
-8 4 -4 16 0 26 10 10 9 18 12 18 7 0 -13 83 -12 93 0 5 8 10 7 16 -3 7 -11
13 -10 35 4 17 11 26 13 26 6 0 -8 12 -11 33 -9 20 2 37 -3 44 -12 11 -13 12
-12 13 5 0 14 3 16 8 7 7 -10 15 -10 38 -2 23 9 31 8 40 -4 6 -9 15 -16 19
-16 4 0 2 6 -4 14 -9 11 -6 14 14 14 13 0 22 -4 19 -9 -9 -14 3 -10 21 7 12
12 19 13 29 5 9 -8 16 -8 20 -2 7 11 66 10 66 -1 0 -4 8 -4 18 -1 15 6 15 5 3
-10 -8 -11 -9 -17 -3 -17 6 0 16 10 23 21 6 12 14 18 18 13 3 -5 15 -16 26
-24 18 -14 19 -14 7 2 -17 21 -1 31 32 18 16 -6 27 -6 31 0 4 6 15 10 26 10
11 0 17 -4 14 -10 -8 -13 1 -13 27 1 16 8 23 8 30 -2 7 -11 11 -11 15 -1 2 6
9 12 14 12 6 0 7 -5 4 -10 -3 -6 -1 -10 5 -10 6 0 13 7 16 15 4 8 10 15 15 15
4 0 6 -7 2 -16 -5 -14 -3 -15 15 -5 27 14 35 14 26 -1 -5 -7 -3 -8 7 -2 8 4
39 10 69 11 163 9 182 9 187 -5 5 -11 7 -11 14 -1 5 9 35 14 94 15 48 1 83 -2
79 -7 -3 -5 0 -9 5 -9 6 0 11 4 11 9 0 5 19 10 43 10 120 2 161 1 178 -4 11
-4 19 -2 19 5 0 7 9 2 19 -11 20 -24 20 -24 14 -2 -4 17 -1 22 13 21 11 0 44
1 74 1 30 1 82 1 115 0 33 -1 83 1 110 5 67 9 62 9 128 1 48 -5 57 -4 57 9 0
9 -6 16 -12 16 -7 1 -37 2 -66 3 -29 1 -55 1 -56 -1z"/>
<path d="M3720 289 c0 -5 5 -7 10 -4 6 3 10 8 10 11 0 2 -4 4 -10 4 -5 0 -10
-5 -10 -11z"/>
<path d="M4070 290 c0 -5 5 -10 11 -10 5 0 7 5 4 10 -3 6 -8 10 -11 10 -2 0
-4 -4 -4 -10z"/>
<path d="M5936 275 c4 -8 11 -15 16 -15 6 0 5 6 -2 15 -7 8 -14 15 -16 15 -2
0 -1 -7 2 -15z"/>
<path d="M5030 269 c0 -5 5 -7 10 -4 6 3 10 8 10 11 0 2 -4 4 -10 4 -5 0 -10
-5 -10 -11z"/>
<path d="M4185 261 c-3 -5 -1 -12 5 -16 5 -3 10 1 10 9 0 18 -6 21 -15 7z"/>
<path d="M4730 256 c0 -2 8 -10 18 -17 15 -13 16 -12 3 4 -13 16 -21 21 -21
13z"/>
<path d="M5730 240 c20 -13 33 -13 25 0 -3 6 -14 10 -23 10 -15 0 -15 -2 -2
-10z"/>
<path d="M5871 238 c0 -9 -4 -25 -7 -35 -5 -17 -5 -17 6 0 6 10 9 25 7 35 -4
15 -5 15 -6 0z"/>
<path d="M5890 236 c0 -3 7 -11 14 -19 8 -8 17 -26 19 -41 1 -15 7 -26 13 -26
5 1 8 9 7 18 -4 32 5 46 22 32 18 -15 28 -8 30 22 2 17 0 18 -9 7 -15 -20 -56
-22 -63 -3 -4 12 -33 21 -33 10z"/>
<path d="M5707 216 c-3 -8 -2 -18 3 -21 13 -8 24 15 12 27 -6 6 -11 4 -15 -6z"/>
<path d="M2930 145 c7 -9 15 -13 17 -11 7 7 -7 26 -19 26 -6 0 -6 -6 2 -15z"/>
<path d="M5805 137 c-4 -10 -5 -21 -1 -24 10 -10 18 4 13 24 -4 17 -4 17 -12
0z"/>
<path d="M5690 120 c0 -5 5 -10 10 -10 6 0 10 5 10 10 0 6 -4 10 -10 10 -5 0
-10 -4 -10 -10z"/>
</g>
</svg>
