<?xml version="1.0" standalone="no"?>
<!DOCTYPE svg PUBLIC "-//W3C//DTD SVG 20010904//EN"
 "http://www.w3.org/TR/2001/REC-SVG-20010904/DTD/svg10.dtd">
<svg version="1.0" xmlns="http://www.w3.org/2000/svg"
 width="600.000000pt" height="600.000000pt" viewBox="0 0 600.000000 600.000000"
 preserveAspectRatio="xMidYMid meet">

<g transform="translate(0.000000,600.000000) scale(0.100000,-0.100000)"
fill="#000000" stroke="none">
<path d="M2620 5973 c-50 -5 -292 -35 -310 -39 -64 -14 -216 -57 -265 -74 -33
-12 -67 -22 -76 -24 -8 -1 -31 -9 -50 -18 -76 -35 -128 -58 -134 -58 -3 0 -39
-23 -80 -50 -49 -33 -77 -59 -81 -75 -3 -14 -11 -25 -17 -25 -6 0 -71 -29
-144 -65 -73 -36 -137 -65 -142 -65 -5 0 -11 -4 -13 -8 -1 -4 -23 -18 -48 -30
-175 -87 -330 -205 -330 -254 0 -8 15 -21 33 -30 l32 -16 -25 -10 c-28 -11
-210 -187 -253 -245 -17 -22 -33 -34 -42 -31 -25 10 -100 -35 -115 -69 -7 -17
-34 -65 -60 -106 -25 -42 -51 -87 -58 -101 -27 -55 -94 -175 -106 -190 -7 -8
-36 -64 -65 -125 -29 -60 -57 -117 -61 -125 -4 -9 -11 -31 -15 -50 -4 -19 -11
-41 -15 -50 -5 -8 -13 -42 -20 -75 -6 -33 -15 -80 -20 -105 -5 -25 -13 -70
-16 -100 -4 -30 -10 -59 -14 -65 -8 -10 -17 -50 -26 -115 -3 -19 -9 -44 -14
-55 -5 -11 -11 -33 -14 -50 -2 -16 -12 -66 -20 -110 -48 -239 -47 -510 0 -658
4 -12 9 -31 11 -42 8 -48 46 -193 58 -225 8 -19 21 -62 29 -95 9 -33 27 -88
41 -122 14 -35 26 -71 28 -80 2 -10 11 -32 20 -50 9 -18 17 -39 17 -47 0 -15
21 -68 46 -117 30 -58 44 -117 35 -142 -11 -28 2 -100 25 -134 8 -12 14 -27
14 -34 0 -6 14 -31 30 -56 17 -24 30 -50 30 -58 0 -8 5 -17 10 -20 6 -4 29
-32 52 -63 23 -31 44 -59 47 -62 3 -3 25 -30 48 -60 23 -30 58 -70 77 -88 22
-21 36 -43 36 -58 0 -34 46 -94 108 -139 63 -47 118 -98 148 -137 12 -16 41
-42 65 -60 24 -17 48 -37 52 -45 4 -7 15 -13 22 -13 8 0 15 -4 15 -8 0 -5 16
-17 35 -28 19 -10 35 -24 35 -30 0 -15 149 -164 165 -164 4 0 21 -10 38 -22
39 -28 84 -55 117 -69 14 -6 43 -20 66 -30 23 -11 46 -19 51 -19 6 0 24 -7 39
-15 16 -8 38 -15 50 -15 11 0 24 -4 30 -9 5 -5 83 -32 174 -61 91 -29 169 -57
174 -61 6 -5 25 -9 42 -9 18 0 35 -4 38 -9 6 -10 39 -16 156 -31 41 -5 92 -12
112 -15 21 -2 51 -11 67 -20 17 -8 35 -15 41 -15 6 0 21 -11 34 -25 13 -14 31
-25 40 -25 9 0 45 -12 79 -26 34 -15 80 -28 102 -31 52 -6 328 -5 380 1 63 8
286 55 370 79 100 29 247 68 263 72 15 3 130 37 219 66 18 5 40 12 50 14 10 2
35 11 55 19 21 9 41 16 45 16 20 -2 196 83 224 106 8 8 20 14 25 14 14 1 60
44 75 71 16 28 16 30 18 68 1 22 10 35 38 53 77 48 75 48 126 31 38 -12 53
-13 73 -4 14 6 33 11 42 11 10 0 38 17 64 38 25 20 59 47 74 59 16 12 47 36
69 54 51 40 160 153 239 249 33 41 66 80 71 86 51 57 107 143 172 264 19 36
48 88 65 115 17 28 43 73 57 100 15 28 32 59 39 70 27 47 111 234 118 261 4
16 20 55 35 86 16 32 29 65 29 73 0 9 8 33 19 55 10 21 26 68 36 104 10 36 23
66 28 66 6 0 8 2 5 5 -3 3 10 65 29 138 47 181 52 207 58 301 5 87 -8 130 -50
172 -14 14 -16 28 -11 68 3 28 6 68 6 89 0 25 7 43 20 54 23 20 26 48 7 56 -9
3 -16 29 -20 64 -3 32 -13 81 -21 108 -29 100 -40 166 -51 300 -4 44 -9 94
-12 110 -2 17 -9 59 -14 95 -6 36 -12 74 -13 85 -2 11 -11 37 -20 58 -9 21
-14 42 -11 47 3 5 1 11 -4 14 -4 3 -11 20 -15 38 -8 40 -60 187 -87 245 -11
23 -20 45 -19 48 1 8 -71 138 -86 156 -8 8 -14 20 -14 26 0 6 -13 26 -30 44
-16 19 -32 42 -36 52 -3 9 -9 17 -14 17 -5 0 -18 17 -31 38 -29 50 -79 103
-210 227 -41 39 -94 86 -119 105 -25 19 -51 39 -58 45 -14 11 -111 100 -201
184 -30 28 -57 51 -61 51 -3 0 -22 14 -41 31 -19 17 -53 44 -75 58 -43 28 -56
38 -187 146 -44 36 -82 65 -86 65 -3 0 -17 10 -31 23 -14 13 -60 42 -102 66
-43 23 -80 46 -83 52 -4 5 -13 9 -22 9 -8 0 -29 6 -46 14 -89 40 -131 56 -148
56 -11 0 -19 4 -19 9 0 32 -364 72 -685 77 -137 2 -338 5 -445 7 -107 1 -211
1 -230 0z m695 -38 c222 -2 362 -11 496 -31 103 -15 125 -20 149 -39 8 -6 42
-19 75 -29 86 -25 273 -119 347 -173 35 -26 95 -74 134 -107 39 -34 106 -86
149 -116 83 -58 188 -144 245 -198 19 -18 91 -81 159 -140 280 -241 438 -425
550 -642 79 -152 123 -279 187 -530 18 -72 44 -267 44 -331 0 -45 9 -89 51
-259 10 -40 13 -106 11 -238 -3 -156 -1 -183 12 -188 8 -3 22 -25 31 -48 36
-93 -23 -379 -145 -711 -110 -297 -207 -497 -418 -859 -72 -125 -254 -339
-390 -460 -170 -150 -257 -199 -318 -179 -40 13 -39 25 4 53 54 36 197 147
212 165 26 32 -18 15 -67 -25 -95 -79 -269 -208 -308 -230 -45 -25 -57 -39
-50 -59 3 -7 3 -28 -1 -47 -5 -25 -19 -41 -62 -72 -130 -90 -268 -142 -668
-253 -448 -123 -541 -140 -787 -139 l-188 0 -92 36 c-51 20 -101 44 -113 55
-11 10 -27 19 -35 19 -8 0 -24 7 -37 15 -12 9 -71 22 -134 31 -184 24 -218 32
-435 103 -397 131 -522 192 -656 320 -42 40 -77 79 -77 85 0 7 -30 32 -67 56
-38 24 -107 83 -154 130 -48 47 -117 110 -155 140 -69 55 -88 82 -99 132 -3
15 -29 51 -58 80 -97 99 -197 238 -259 358 -38 76 -43 93 -44 155 0 39 -4 79
-9 90 -113 264 -251 693 -295 917 -38 193 -23 456 40 718 12 47 32 139 45 205
65 316 79 372 115 458 21 50 57 126 80 167 23 41 63 113 89 160 170 306 205
354 252 344 21 -4 31 2 54 32 80 104 237 241 443 384 34 23 60 45 58 47 -2 3
-35 -14 -73 -37 -109 -67 -172 -86 -188 -59 -21 32 163 154 455 302 141 72
219 117 227 132 15 27 117 95 196 130 168 74 416 143 627 174 107 16 163 18
390 14 146 -3 351 -7 455 -8z"/>
<path d="M2685 5699 c-215 -33 -614 -145 -819 -231 -253 -105 -453 -215 -606
-333 -226 -173 -343 -292 -455 -461 -85 -127 -246 -443 -298 -584 -37 -99
-108 -377 -126 -490 -33 -207 -41 -299 -41 -472 0 -170 -2 -191 -20 -220 -27
-45 -26 -112 5 -273 42 -219 43 -224 114 -445 11 -36 21 -82 21 -102 0 -21 16
-79 35 -130 44 -118 186 -389 234 -447 87 -104 93 -117 88 -179 -3 -31 -8 -69
-12 -84 -6 -24 0 -35 50 -87 67 -70 141 -111 201 -111 60 0 166 -51 250 -120
104 -86 216 -150 361 -208 178 -71 363 -160 392 -188 13 -13 41 -29 62 -34 22
-6 39 -15 39 -20 0 -18 83 -68 125 -74 39 -6 44 -10 49 -40 13 -69 89 -126
169 -127 55 -1 88 13 120 50 l26 31 68 -15 c126 -29 207 -36 398 -39 209 -3
347 11 555 59 400 91 547 151 825 335 133 89 183 130 301 246 144 142 294 316
346 401 16 26 51 84 78 128 27 44 79 136 116 205 37 69 82 151 101 182 101
170 190 437 254 763 33 171 48 466 29 593 -5 37 -17 114 -25 172 -23 154 -70
345 -94 379 -12 16 -21 35 -21 41 0 7 -15 27 -33 44 -23 22 -38 50 -50 96 -74
268 -250 646 -381 818 -22 30 -54 73 -71 97 -16 23 -57 73 -90 111 -33 38 -64
75 -70 82 -22 27 -206 184 -267 226 -122 85 -450 231 -618 275 -41 11 -115 30
-165 44 -49 13 -137 34 -195 47 -58 12 -130 29 -160 36 -30 8 -152 25 -270 39
-220 26 -411 31 -525 14z m545 -74 c140 -15 326 -49 440 -81 30 -8 78 -21 105
-28 401 -106 630 -197 803 -318 180 -126 320 -271 490 -507 58 -81 126 -207
118 -220 -3 -4 10 -44 28 -87 83 -199 129 -364 161 -584 8 -58 22 -139 30
-180 47 -249 16 -729 -70 -1049 -38 -140 -85 -272 -118 -331 -11 -19 -32 -57
-47 -85 -50 -93 -65 -120 -71 -125 -3 -3 -12 -16 -18 -29 -55 -103 -363 -459
-466 -537 -22 -17 -68 -51 -102 -77 -34 -26 -64 -44 -66 -40 -3 5 -40 87 -82
183 -42 96 -92 209 -110 250 -42 95 -155 361 -155 365 0 8 -225 463 -240 485
-10 14 -32 53 -50 88 -18 34 -41 67 -51 73 -26 13 -55 -3 -63 -36 -4 -14 -10
-25 -15 -25 -4 0 -24 24 -44 53 -50 73 -82 101 -100 90 -8 -4 -52 -53 -97
-108 -45 -55 -88 -101 -95 -103 -7 -2 -48 6 -91 17 -44 11 -122 25 -174 31
-52 6 -109 15 -125 21 -37 11 -332 13 -433 4 l-73 -8 -78 77 c-46 44 -87 76
-99 76 -11 0 -29 -11 -40 -25 -17 -21 -22 -23 -34 -12 -28 27 -63 47 -84 47
-19 0 -26 -12 -49 -82 -30 -90 -86 -237 -115 -302 -10 -23 -41 -93 -70 -156
-73 -162 -203 -411 -265 -505 -28 -44 -86 -132 -128 -196 l-75 -116 -46 21
c-28 13 -46 28 -46 38 0 22 -40 68 -89 102 -35 24 -48 27 -115 27 -62 0 -80 3
-95 18 -17 17 -121 185 -121 196 0 2 -11 29 -25 59 -14 30 -25 57 -25 59 0 3
-21 49 -46 104 -43 90 -90 207 -98 243 -2 8 -14 40 -26 70 -12 30 -37 119 -56
197 -56 235 -71 548 -40 812 16 141 12 161 -34 161 -20 0 -30 5 -30 14 0 39
93 393 126 481 20 55 37 106 37 113 0 6 4 12 8 12 4 0 15 23 25 50 10 28 22
50 26 50 4 0 8 7 8 15 0 18 62 149 73 153 4 2 2 11 -5 20 -9 11 -9 14 -1 9 8
-5 22 10 40 45 15 29 28 58 28 63 0 43 222 274 374 389 166 126 226 164 377
240 134 67 416 186 442 186 6 0 72 20 149 44 380 123 596 144 1003 101z m2340
-1881 c0 -6 8 -22 18 -35 27 -35 86 -305 107 -490 5 -39 3 -59 -5 -64 -20 -13
-28 7 -45 115 -28 183 -45 272 -76 391 -16 64 -29 120 -29 125 1 13 30 -28 30
-42z m140 -738 c-6 -148 -20 -195 -21 -70 0 43 -4 104 -8 134 -8 54 -3 69 24
70 6 0 8 -48 5 -134z m-5341 -256 c37 -191 99 -426 147 -558 51 -140 199 -447
280 -582 34 -57 54 -101 54 -120 0 -46 36 -107 80 -136 25 -17 40 -34 40 -48
1 -11 11 -41 23 -66 16 -34 33 -50 64 -65 34 -15 45 -27 55 -60 l14 -41 -61 4
c-72 5 -120 30 -189 100 l-49 50 12 46 c6 25 11 57 11 73 0 34 -30 100 -58
129 -103 107 -302 516 -302 621 0 18 -18 89 -40 156 -62 191 -120 476 -120
587 0 69 14 36 39 -90z m1792 -2 c40 -71 82 -165 102 -228 16 -52 39 -62 69
-30 11 12 27 19 35 16 22 -9 56 13 50 33 -4 15 12 22 102 45 166 41 233 49
426 50 131 1 212 -4 298 -18 l118 -18 52 53 c29 30 67 73 85 97 32 40 52 53
52 33 0 -5 16 -45 36 -88 20 -43 51 -109 69 -148 18 -38 48 -104 68 -145 55
-118 203 -542 247 -708 28 -106 60 -273 55 -283 -3 -4 -35 -17 -70 -29 -54
-18 -69 -20 -81 -9 -12 10 -16 9 -21 -9 -4 -17 -32 -30 -143 -67 -138 -46
-192 -77 -156 -91 10 -4 71 13 144 39 167 61 158 60 154 12 -2 -22 -8 -42 -13
-46 -9 -5 -80 -21 -221 -49 -34 -7 -58 -17 -58 -24 0 -17 88 -10 193 13 86 20
89 18 54 -44 l-23 -40 -118 4 c-97 3 -118 1 -114 -10 3 -9 35 -18 87 -26 46
-6 85 -14 88 -16 10 -11 -68 -47 -142 -66 -71 -19 -89 -20 -159 -10 -99 13
-170 40 -219 82 l-38 32 24 55 c13 30 31 86 40 123 14 62 14 74 0 120 -8 28
-21 60 -28 71 -11 18 -47 130 -74 226 -4 14 -18 29 -34 34 -47 17 -51 2 -33
-143 9 -71 16 -133 16 -136 0 -3 -8 -5 -18 -5 -11 0 -27 -9 -37 -21 -19 -20
-18 -21 12 -77 38 -69 73 -174 73 -217 0 -57 -114 -139 -240 -171 -97 -25
-251 -15 -350 21 -68 25 -158 75 -136 75 5 0 64 2 130 5 152 7 201 16 201 35
0 20 -48 28 -109 18 -28 -4 -101 -10 -163 -14 -127 -8 -115 -13 -174 75 -34
53 -36 61 -9 61 25 0 215 -36 289 -55 57 -14 81 -11 81 10 0 21 -23 33 -60 33
-45 0 -333 50 -341 60 -12 13 -27 102 -17 102 39 0 420 -112 443 -130 11 -9
65 -2 65 9 -1 21 -33 44 -61 43 -17 0 -53 8 -80 18 -26 11 -112 38 -191 60
-79 22 -151 43 -160 46 -11 3 -18 15 -18 30 0 15 -6 24 -15 24 -8 0 -15 -7
-15 -15 0 -8 -6 -15 -12 -15 -17 0 -124 26 -295 72 -79 21 -145 38 -148 38 -3
0 -5 -6 -5 -14 0 -8 20 -21 48 -30 35 -11 271 -85 388 -121 9 -3 27 -104 20
-112 -1 -1 -93 12 -205 28 -202 30 -263 31 -211 5 14 -7 117 -28 229 -46 l203
-34 16 -35 c9 -20 29 -55 45 -78 l28 -43 -38 -1 c-216 -5 -364 -16 -374 -26
-7 -7 -10 -15 -7 -18 3 -4 105 -2 227 4 l221 10 64 -49 c60 -45 156 -90 193
-90 8 0 43 -21 76 -46 99 -74 165 -103 297 -130 158 -33 319 13 488 140 35 26
76 47 107 53 79 18 159 51 206 85 l44 31 157 1 c87 1 158 -1 158 -4 0 -3 5
-36 10 -75 5 -38 10 -144 11 -234 l2 -165 -107 -38 c-172 -61 -331 -99 -426
-102 -47 -2 -141 -9 -210 -15 -69 -7 -181 -11 -249 -9 l-125 3 -33 83 c-36 91
-79 156 -121 185 -52 35 -118 65 -168 75 -28 6 -74 25 -101 42 -32 20 -70 33
-113 39 -36 5 -92 19 -125 31 -111 41 -259 8 -311 -69 -13 -19 -24 -46 -24
-58 0 -13 -2 -23 -4 -23 -2 0 -57 25 -121 55 -120 57 -280 157 -348 217 l-37
33 44 73 c73 121 72 212 -4 293 -25 27 -40 53 -40 69 0 14 -9 39 -20 57 -19
32 -19 32 3 65 103 153 244 393 337 573 31 61 79 153 106 205 52 99 90 183
131 285 13 33 27 67 32 75 4 8 14 39 21 68 8 28 17 52 20 52 3 0 17 -19 31
-42z m-1386 -858 c9 -16 13 -30 11 -30 -3 0 -12 14 -21 30 -9 17 -13 30 -11
30 3 0 12 -13 21 -30z m408 -245 c19 -8 45 -27 57 -42 l22 -28 -65 -6 c-75 -6
-118 -22 -168 -61 -41 -31 -80 -36 -103 -12 -19 19 -19 17 -2 57 17 41 65 85
102 97 46 13 118 11 157 -5z m167 -155 c36 -18 60 -45 60 -68 0 -5 -24 -7 -54
-4 -76 6 -156 -20 -211 -69 -39 -34 -74 -43 -96 -23 -13 11 -15 22 -9 42 19
64 34 82 93 112 75 37 156 41 217 10z m2702 -157 c3 -21 7 -44 9 -52 3 -10
-20 -20 -84 -36 -73 -19 -87 -20 -83 -8 3 8 6 29 6 46 0 30 5 34 63 58 34 15
67 27 73 28 7 1 14 -16 16 -36z m-2621 6 c81 -28 108 -88 72 -160 l-17 -34 -6
29 c-3 16 -13 34 -23 40 -15 9 -22 7 -35 -12 -53 -74 -65 -83 -124 -89 -56 -6
-58 -5 -93 30 -42 42 -41 69 5 127 51 66 143 95 221 69z m1740 -9 c22 -12 24
-45 5 -105 l-11 -39 -29 64 c-15 36 -30 71 -33 78 -6 15 40 16 68 2z m899
-102 c1 -2 6 -46 13 -99 l13 -96 -50 4 c-28 2 -88 9 -133 14 l-83 11 25 42
c14 24 25 50 25 58 0 11 26 23 88 41 91 26 102 29 102 25z m-915 -248 c13 -22
111 -62 189 -79 l81 -18 -60 -38 c-160 -104 -321 -128 -486 -74 -64 21 -159
69 -159 80 0 3 37 9 83 12 103 7 200 38 274 87 64 43 69 44 78 30z m-1775 -56
c38 -31 70 -58 70 -61 0 -6 -80 51 -120 86 -60 52 -24 34 50 -25z m900 -149
c0 -2 -22 -16 -49 -29 -27 -14 -67 -46 -90 -72 l-41 -46 -10 26 c-18 50 37
102 125 117 55 9 65 10 65 4z m242 -54 c19 -7 16 -9 -18 -13 -58 -8 -108 -44
-150 -110 -21 -31 -44 -60 -51 -62 -17 -7 -84 20 -95 37 -31 49 41 133 137
158 34 9 143 3 177 -10z m240 -113 c27 -11 64 -39 83 -60 30 -36 85 -136 85
-156 0 -15 -151 8 -198 30 -37 18 -48 29 -52 52 -10 59 -70 57 -70 -2 0 -91
-81 -149 -153 -110 -36 19 -46 40 -47 94 0 40 6 60 30 96 40 60 68 77 138 86
64 9 113 1 184 -30z"/>
<path d="M4335 4915 c-35 -18 -65 -51 -65 -72 0 -8 14 -28 30 -43 l31 -29 -26
-49 c-30 -57 -47 -149 -39 -204 l7 -38 -49 0 c-101 0 -186 -35 -249 -100 -37
-39 -39 -43 -22 -54 10 -6 28 -19 40 -29 18 -16 22 -16 41 -2 12 9 35 24 51
35 17 11 24 20 16 20 -8 0 -29 -11 -47 -25 -39 -30 -46 -31 -68 -6 -17 18 -16
21 18 59 52 57 122 84 230 90 79 4 87 6 71 18 -14 11 -19 27 -19 67 -1 74 7
89 39 77 15 -6 50 -10 78 -10 69 0 132 33 177 93 32 43 35 45 52 30 17 -16 20
-15 33 4 42 60 139 82 189 42 73 -57 73 -173 0 -310 -12 -22 -20 -66 -24 -123
l-6 -89 -50 -45 c-61 -56 -119 -83 -194 -89 -56 -5 -59 -5 -102 36 -38 34 -52
41 -87 41 -51 0 -105 27 -151 75 -36 38 -79 65 -102 65 -7 -1 4 -10 24 -20 20
-11 49 -36 64 -55 39 -51 88 -77 157 -84 68 -7 82 -22 37 -41 -46 -19 -102
-86 -94 -113 8 -29 38 -61 72 -78 44 -22 53 -31 44 -43 -24 -31 -62 -199 -62
-276 0 -78 31 -206 69 -282 34 -69 38 -73 70 -73 47 0 80 42 63 80 -9 19 -19
25 -42 25 -28 0 -34 6 -56 55 -63 137 -49 252 49 405 l36 55 98 1 c54 0 110 4
124 8 24 7 27 3 57 -62 18 -38 40 -104 49 -147 22 -100 8 -202 -41 -317 -37
-84 -37 -111 -2 -106 27 4 48 50 82 175 22 80 27 121 27 218 1 108 -2 127 -26
186 -29 71 -33 89 -17 89 20 0 89 72 95 100 13 60 -68 121 -180 137 -25 3 -45
8 -45 10 0 2 12 14 26 27 24 20 27 31 33 117 6 69 14 108 33 149 39 83 51 129
52 190 0 75 -23 116 -80 141 -51 23 -97 16 -158 -26 l-37 -25 -22 21 c-33 32
-81 49 -137 49 -40 0 -52 4 -56 18 -21 69 -53 86 -109 57z m75 -34 c5 -11 10
-30 10 -43 0 -22 4 -24 36 -20 35 4 124 -23 124 -38 0 -21 -69 -105 -100 -121
-50 -27 -155 -22 -167 8 -7 18 13 64 42 95 l25 27 -34 11 c-50 16 -55 39 -18
83 21 23 69 22 82 -2z"/>
<path d="M1151 4872 c-15 -28 19 -75 97 -131 35 -25 77 -64 95 -85 29 -37 30
-40 12 -50 -56 -33 -69 -82 -43 -156 9 -27 9 -35 -2 -38 -7 -3 -29 -19 -49
-37 -35 -32 -35 -32 -20 -71 11 -29 25 -44 59 -61 133 -67 487 -38 572 47 38
39 37 75 -3 99 l-31 19 40 31 c45 36 82 97 82 134 0 14 -11 39 -24 54 -21 25
-31 28 -83 28 -44 0 -65 -5 -89 -22 -31 -22 -34 -22 -75 -8 -62 22 -146 29
-199 16 -43 -10 -46 -10 -71 19 -14 17 -41 58 -60 92 -57 102 -87 130 -146
135 -44 5 -53 2 -62 -15z m75 -14 c22 -10 89 -93 273 -340 11 -15 11 -18 -1
-18 -8 0 -25 15 -38 33 -84 115 -161 202 -203 229 -54 35 -82 70 -73 93 7 18
8 18 42 3z m697 -249 c21 -26 21 -46 3 -90 -21 -49 -75 -97 -134 -119 -29 -11
-57 -20 -62 -20 -20 0 31 41 70 56 22 9 54 32 71 51 25 29 30 42 25 66 -16 81
-107 73 -151 -14 -24 -46 -71 -79 -112 -79 -11 1 -6 7 17 18 l35 17 -67 3
c-66 3 -67 3 -112 54 -52 57 -56 68 -23 69 12 0 38 2 57 3 44 4 114 -10 162
-31 36 -15 38 -15 55 6 35 44 133 49 166 10z m-502 -55 c25 -37 29 -48 18 -55
-32 -20 -94 1 -105 34 -5 15 1 27 20 44 15 13 29 23 31 23 2 0 18 -21 36 -46z
m447 19 c15 -32 -1 -76 -37 -100 -40 -27 -66 -30 -57 -7 3 9 6 33 6 54 0 22 7
45 16 54 21 21 61 20 72 -1z m-123 -110 c-20 -47 -57 -87 -114 -124 -107 -69
-247 -16 -275 104 -7 31 -8 31 64 12 80 -21 215 -19 266 4 23 10 45 24 48 30
17 27 25 7 11 -26z m-392 -94 c67 -94 210 -110 326 -35 71 46 134 63 166 46
58 -31 10 -93 -94 -124 -59 -17 -225 -21 -298 -7 -40 8 -59 0 -30 -13 6 -3 -8
-3 -33 0 -109 15 -164 86 -104 133 34 26 49 26 67 0z"/>
<path d="M4718 4721 l-32 -28 41 -49 c22 -27 50 -66 63 -88 l23 -38 23 38 c31
51 39 95 24 138 -21 63 -87 76 -142 27z m108 -2 c22 -24 24 -80 5 -126 -16
-39 -27 -42 -35 -10 -3 13 -19 43 -36 68 -16 24 -30 47 -30 51 0 9 50 37 66
38 6 0 19 -9 30 -21z"/>
<path d="M2519 4691 c-153 -41 -245 -107 -269 -193 -11 -36 1 -90 32 -151 11
-22 18 -40 16 -42 -2 -2 -46 -11 -98 -20 -52 -9 -99 -21 -105 -26 -21 -21 32
-465 58 -481 10 -6 268 -14 327 -10 8 0 68 2 132 3 119 1 331 14 403 24 47 6
44 1 105 195 23 74 65 204 92 288 27 85 47 156 44 159 -3 3 -104 -8 -224 -26
-237 -34 -272 -36 -272 -21 0 5 16 48 35 94 41 100 44 140 11 180 -19 24 -33
31 -82 37 -91 11 -134 9 -205 -10z m233 -114 c13 -25 -6 -94 -47 -166 l-30
-55 -110 -18 c-61 -10 -133 -21 -161 -24 l-51 -6 -6 38 c-8 49 -9 102 -1 132
5 16 14 22 35 22 17 0 39 10 52 23 12 12 24 21 27 21 59 -15 61 -14 89 17 28
30 29 31 54 14 23 -15 28 -15 54 -1 16 8 35 22 43 30 14 18 33 8 52 -27z m166
-304 c53 -43 74 -76 79 -125 10 -86 -50 -178 -147 -228 -36 -18 -90 -27 -90
-15 0 3 16 27 35 54 67 93 77 172 26 212 -21 17 -35 20 -76 16 -110 -11 -168
-65 -189 -177 -14 -78 -35 -113 -86 -147 -39 -27 -125 -31 -168 -9 -117 61
-124 248 -13 349 69 62 155 62 217 1 l35 -36 33 39 c33 38 103 79 160 94 17 5
57 6 90 4 46 -3 66 -9 94 -32z"/>
<path d="M2324 4122 c-48 -38 -57 -96 -24 -150 39 -63 105 -61 150 5 35 51 32
109 -6 140 -35 28 -90 30 -120 5z"/>
<path d="M4590 4628 c-45 -17 -53 -55 -18 -87 17 -17 19 -23 8 -36 -21 -25
-41 -19 -34 10 7 29 -18 65 -46 65 -23 0 -70 -38 -70 -56 0 -23 38 -49 73 -49
25 0 34 -6 45 -28 17 -36 9 -47 -38 -47 -29 0 -43 -6 -54 -22 -18 -25 -12 -67
12 -85 19 -15 68 -17 77 -3 11 17 23 11 27 -12 2 -14 14 -26 30 -32 55 -19 91
51 47 95 -21 21 -22 60 -1 67 8 2 12 -7 12 -26 0 -38 35 -82 64 -82 33 0 60
33 52 64 -9 35 -33 56 -66 56 -19 0 -33 7 -40 19 -13 25 0 34 35 25 54 -13 79
60 31 91 -32 21 -66 5 -66 -30 0 -31 -12 -38 -36 -20 -18 13 -18 14 4 38 41
44 7 106 -48 85z m39 -31 c15 -19 -10 -53 -33 -44 -16 6 -22 38 -9 50 10 11
30 8 42 -6z m-110 -51 c18 -22 2 -46 -30 -46 -37 0 -50 27 -24 46 24 18 40 18
54 0z m219 -39 c3 -21 -1 -27 -17 -27 -21 0 -37 32 -26 50 12 20 40 5 43 -23z
m-108 -32 c18 -22 3 -57 -23 -53 -25 3 -34 32 -17 53 16 19 24 19 40 0z m-32
-101 c2 -11 -6 -28 -18 -39 -20 -18 -20 -18 -20 17 0 19 3 38 7 42 11 11 28 1
31 -20z m147 -14 c0 -20 -5 -25 -25 -25 -20 0 -26 6 -28 28 -3 26 -1 28 25 25
22 -2 28 -8 28 -28z m-227 14 c27 -8 29 -35 2 -59 -19 -17 -21 -17 -40 0 -23
21 -25 36 -8 53 14 14 15 14 46 6z m126 -68 c9 -13 7 -20 -8 -31 -32 -24 -62
15 -34 43 15 15 28 11 42 -12z"/>
<path d="M3541 4617 c-42 -16 -97 -78 -106 -118 -8 -35 14 -74 46 -84 15 -5
32 2 59 24 21 17 41 31 43 31 6 0 33 -75 47 -127 35 -137 42 -437 14 -650 -20
-150 -14 -205 27 -288 28 -57 60 -87 129 -121 47 -24 67 -28 135 -27 228 1
375 173 335 393 -21 113 -79 197 -165 236 -47 22 -52 27 -82 101 -18 43 -32
72 -33 64 0 -7 18 -56 40 -107 22 -52 40 -103 40 -114 0 -12 7 -20 18 -20 9 0
30 -11 45 -25 109 -102 53 -328 -98 -396 -102 -47 -219 3 -271 116 -39 83 -28
174 30 250 26 33 90 75 111 71 10 -1 38 121 31 144 -2 8 -4 4 -5 -10 -2 -35
-10 -44 -60 -64 -25 -10 -57 -26 -72 -37 -15 -10 -29 -19 -31 -19 -2 0 -2 87
0 193 7 311 -22 499 -87 561 -34 33 -90 42 -140 23z"/>
<path d="M3968 4203 c-10 -17 -9 -103 1 -103 5 0 12 -8 14 -17 3 -10 3 14 0
52 -6 73 -8 82 -15 68z"/>
<path d="M1722 4132 c-30 -11 -67 -30 -84 -42 l-30 -22 -61 28 c-247 110 -481
-62 -451 -331 12 -112 70 -259 154 -391 18 -28 30 -61 30 -81 0 -27 5 -34 28
-40 36 -9 63 -5 85 14 35 32 15 64 -45 72 -43 6 -43 6 -89 98 -97 192 -106
392 -23 516 35 53 128 97 206 97 97 0 134 -31 145 -118 7 -63 -16 -122 -49
-122 -53 1 -70 46 -25 68 15 7 25 17 22 23 -10 16 -51 10 -70 -11 -16 -17 -17
-25 -7 -58 17 -57 74 -79 120 -46 21 15 25 15 41 0 27 -25 87 -20 116 9 60 59
5 150 -61 100 -18 -13 -17 -14 18 -15 41 0 57 -24 38 -60 -15 -27 -75 -28 -90
-1 -15 29 -11 120 8 170 22 58 58 83 125 89 86 7 149 -33 198 -128 22 -41 24
-57 24 -180 0 -159 -12 -215 -77 -361 -28 -63 -32 -67 -69 -72 -71 -9 -91 -49
-43 -86 34 -27 64 -27 98 0 20 16 25 26 20 45 -4 17 5 41 33 86 85 137 126
267 125 398 -1 258 -167 420 -360 352z"/>
<path d="M3330 4108 c-35 -13 -59 -37 -81 -80 -39 -77 -22 -133 79 -256 66
-81 82 -122 82 -208 0 -105 -66 -205 -155 -234 -54 -18 -137 -8 -178 20 -74
51 -87 124 -37 199 35 51 35 52 15 91 -27 51 -96 49 -124 -4 -39 -75 6 -243
81 -299 71 -53 96 -60 189 -54 149 10 234 65 278 182 45 121 20 201 -107 338
-45 49 -85 99 -88 113 -6 23 11 83 25 85 3 1 21 2 40 4 43 4 72 32 64 63 -8
31 -51 52 -83 40z"/>
<path d="M3951 4060 c-1 -14 -4 -36 -6 -50 l-6 -25 11 25 c6 13 9 36 7 50 l-4
25 -2 -25z"/>
<path d="M3901 3794 c0 -11 3 -14 6 -6 3 7 2 16 -1 19 -3 4 -6 -2 -5 -13z"/>
<path d="M4081 3784 c0 -11 3 -14 6 -6 3 7 2 16 -1 19 -3 4 -6 -2 -5 -13z"/>
<path d="M3900 3725 c0 -5 5 -17 10 -25 5 -8 10 -10 10 -5 0 6 -5 17 -10 25
-5 8 -10 11 -10 5z"/>
<path d="M2573 3571 c-18 -11 -44 -38 -59 -60 -21 -33 -25 -49 -22 -88 3 -26
8 -55 11 -63 12 -25 -68 -43 -116 -26 l-36 12 36 36 c40 41 41 75 0 64 -63
-17 -137 -29 -143 -23 -4 3 15 26 41 50 66 59 42 92 -38 50 -43 -22 -148 -53
-159 -47 -4 3 -8 0 -8 -6 0 -16 83 -2 153 26 31 12 57 19 57 14 0 -5 -18 -23
-40 -40 -22 -17 -40 -38 -40 -45 0 -25 55 -35 111 -20 29 8 55 12 58 10 2 -3
-8 -18 -22 -33 -15 -16 -27 -35 -27 -44 0 -23 25 -27 265 -41 124 -7 189 33
200 125 13 103 -26 148 -140 162 -40 5 -56 3 -82 -13z m103 -11 c26 0 5 -18
-28 -25 -32 -7 -44 -15 -78 -49 -16 -16 -17 -20 -4 -33 17 -18 18 -25 2 -41
-8 -8 -9 -12 -1 -12 6 0 13 6 15 12 3 8 9 4 17 -10 6 -12 17 -22 23 -22 6 0 3
11 -7 26 -13 20 -14 28 -4 40 16 20 24 18 39 -11 7 -14 25 -32 39 -42 23 -14
22 -12 -9 27 l-33 42 22 18 23 17 -31 -5 c-38 -5 -42 14 -5 28 48 18 91 12
113 -16 29 -36 28 -69 0 -34 -17 21 -19 22 -10 3 18 -37 13 -90 -12 -119 -19
-22 -35 -28 -92 -34 l-70 -8 -37 39 c-66 67 -49 137 47 194 22 12 46 21 53 19
8 -2 20 -4 28 -4z m-50 -72 c9 -15 -27 -41 -40 -28 -6 6 -5 15 4 25 15 18 26
19 36 3z"/>
<path d="M3113 2550 c-49 -7 -111 -46 -149 -94 l-28 -34 -35 28 c-126 99 -227
101 -333 5 -87 -79 -141 -179 -157 -294 -22 -164 67 -369 188 -430 121 -61
255 -38 350 60 l39 41 42 -31 c48 -34 135 -56 188 -46 143 27 272 198 272 361
0 130 -58 294 -125 353 -72 63 -167 94 -252 81z m115 -76 c27 -18 28 -35 4
-64 -24 -29 -64 -21 -80 15 -15 32 -15 30 4 49 20 20 43 20 72 0z m-143 -4
c-11 -18 33 -94 64 -113 63 -37 135 -11 148 54 l6 29 33 -32 c42 -41 80 -125
92 -202 20 -125 -42 -280 -138 -348 -30 -21 -71 -41 -90 -44 -51 -8 -110 11
-154 48 l-37 33 12 95 c16 130 8 241 -23 318 l-25 61 23 34 c23 34 71 76 87
77 5 0 5 -5 2 -10z m-315 -19 c24 -45 8 -71 -44 -71 -51 0 -102 72 -58 83 46
12 91 7 102 -12z m115 -72 c68 -82 100 -198 91 -335 -10 -159 -50 -231 -157
-279 -57 -25 -65 -26 -116 -16 -31 6 -70 20 -89 31 -31 20 -87 87 -113 138
-21 41 -33 188 -20 256 13 68 66 181 98 210 20 18 21 18 60 -17 71 -64 142
-60 186 10 11 18 23 32 27 33 3 0 18 -14 33 -31z"/>
<path d="M2947 1223 c-13 -12 -7 -23 13 -23 11 0 20 7 20 15 0 15 -21 21 -33
8z"/>
<path d="M3460 1146 c0 -8 4 -17 8 -20 13 -8 35 11 28 23 -10 16 -36 14 -36
-3z"/>
<path d="M2784 1139 c-10 -17 13 -36 27 -22 12 12 4 33 -11 33 -5 0 -12 -5
-16 -11z"/>
<path d="M3340 1100 c0 -5 7 -10 15 -10 8 0 15 5 15 10 0 6 -7 10 -15 10 -8 0
-15 -4 -15 -10z"/>
<path d="M2947 1044 c-14 -14 -7 -35 11 -32 9 2 17 10 17 17 0 16 -18 25 -28
15z"/>
<path d="M3400 1036 c0 -8 4 -17 8 -20 13 -8 35 11 28 23 -10 16 -36 14 -36
-3z"/>
<path d="M1283 5323 c-7 -2 -13 -8 -13 -13 0 -10 38 -1 46 11 6 10 -13 11 -33
2z"/>
<path d="M5510 4405 c0 -9 59 -192 82 -255 12 -33 45 -76 53 -68 6 6 -20 118
-35 146 -5 10 -25 51 -45 92 -38 76 -55 103 -55 85z"/>
<path d="M1120 961 c0 -11 79 -71 94 -71 14 0 -28 42 -63 63 -17 10 -31 14
-31 8z"/>
</g>
</svg>
